<svg id="Layer_1" data-name="Layer 1" xmlns="http://www.w3.org/2000/svg" viewBox="0 0 767.4 569.2"><defs><style>.cls-1{fill:#fefefe;}.cls-2{fill:#c80086;}.cls-3{fill:#d14360;}.cls-4{fill:#e19038;}.cls-5{fill:#d03f62;}.cls-6{fill:#d14161;}.cls-7{fill:#e29076;}.cls-8{fill:#df847d;}.cls-9{fill:#dd7884;}.cls-10{fill:#e7a86b;}.cls-11{fill:#e39673;}.cls-12{fill:#e18a79;}.cls-13{fill:#e5a06e;}.cls-14{fill:#df7e80;}.cls-15{fill:#e6a46d;}.cls-16{fill:#e59b71;}.cls-17{fill:#dc7387;}.cls-18{fill:#ce2e6e;}.cls-19{fill:#ce316d;}.cls-20{fill:#ce326b;}.cls-21{fill:#ce2c6f;}.cls-22{fill:#cd2971;}.cls-23{fill:#cc2673;}.cls-24{fill:#cc2475;}.cls-25{fill:#e7a832;}.cls-26{fill:#ca1480;}.cls-27{fill:#e6a532;}.cls-28{fill:#cb1c7a;}.cls-29{fill:#cb1a7c;}.cls-30{fill:#e9b131;}.cls-31{fill:#cc2276;}.cls-32{fill:#c27;}.cls-33{fill:#e5a133;}.cls-34{fill:#cb1f78;}.cls-35{fill:#e6a333;}.cls-36{fill:#e49c35;}.cls-37{fill:#cb187e;}.cls-38{fill:#ca1083;}.cls-39{fill:#e4a034;}.cls-40{fill:#cb177e;}.cls-41{fill:#cd2a70;}.cls-42{fill:#e5a233;}.cls-43{fill:#cc2872;}.cls-44{fill:#cb2078;}.cls-45{fill:#ca1281;}.cls-46{fill:#cb1d79;}.cls-47{fill:#e8ac31;}.cls-48{fill:#e7a632;}.cls-49{fill:#ce2b6f;}.cls-50{fill:#ca1381;}.cls-51{fill:#e49e34;}.cls-52{fill:#cc2574;}.cls-53{fill:#e7aa32;}.cls-54{fill:#e9ad31;}.cls-55{fill:#ca0f83;}.cls-56{fill:#cb1b7c;}.cls-57{fill:#e49d34;}.cls-58{fill:#ca167f;}.cls-59{fill:#d2495c;}.cls-60{fill:#e7ab31;}.cls-61{fill:#e39a35;}.cls-62{fill:#eab231;}.cls-63{fill:#cf3c65;}.cls-64{fill:#e9af31;}.cls-65{fill:#c90885;}.cls-66{fill:#d86d47;}.cls-67{fill:#e29836;}.cls-68{fill:#e19437;}.cls-69{fill:#e19238;}.cls-70{fill:#e29636;}.cls-71{fill:#d45853;}.cls-72{fill:#da7245;}.cls-73{fill:#e8ac32;}.cls-74{fill:#c90a85;}.cls-75{fill:#eab331;}.cls-76{fill:#df8b3a;}.cls-77{fill:#df893b;}.cls-78{fill:#de863c;}.cls-79{fill:#dd833d;}.cls-80{fill:#df8d39;}.cls-81{fill:#dd803f;}.cls-82{fill:#dc7a41;}.cls-83{fill:#dc7d40;}.cls-84{fill:#cf3767;}.cls-85{fill:#cf336a;}.cls-86{fill:#e19138;}.cls-87{fill:#d45755;}.cls-88{fill:#d55b51;}.cls-89{fill:#d86a49;}.cls-90{fill:#da7046;}.cls-91{fill:#d24b5a;}.cls-92{fill:#da7543;}.cls-93{fill:#db7743;}.cls-94{fill:#cf3669;}.cls-95{fill:#d03d64;}.cls-96{fill:#d6614e;}.cls-97{fill:#d6644c;}.cls-98{fill:#d8674b;}.cls-99{fill:#d1465e;}.cls-100{fill:#d24e59;}.cls-101{fill:#d65e50;}.cls-102{fill:#c90c84;}.cls-103{fill:#cf3768;}.cls-104{fill:#cf3867;}.cls-105{fill:#cf3a66;}.cls-106{fill:#d6634d;}.cls-107{fill:#e08e39;}.cls-108{fill:#d45952;}.cls-109{fill:#d8684a;}.cls-110{fill:#d7664c;}.cls-111{fill:#d65f4f;}.cls-112{fill:#d86b49;}.cls-113{fill:#df883c;}.cls-114{fill:#da7444;}.cls-115{fill:#d35058;}.cls-116{fill:#d45157;}.cls-117{fill:#e19039;}.cls-118{fill:#cf346a;}.cls-119{fill:#c90687;}.cls-120{fill:#e29537;}.cls-121{fill:#d14162;}.cls-122{fill:#d2475d;}.cls-123{fill:#dc7c40;}.cls-124{fill:#dc7f3f;}.cls-125{fill:#dd823d;}.cls-126{fill:#de853c;}.cls-127{fill:#d65d51;}.cls-128{fill:#d96f46;}.cls-129{fill:#db7942;}.cls-130{fill:#d45357;}.cls-131{fill:#e18f39;}.cls-132{fill:#d45456;}.cls-133{fill:#d24d5a;}.cls-134{fill:#d1455f;}.cls-135{fill:#cf3967;}.cls-136{fill:#d45555;}.cls-137{fill:#d6654d;}.cls-138{fill:#e7a733;}.cls-139{fill:#d24a5c;}.cls-140{fill:#da7643;}.cls-141{fill:#df8a3a;}.cls-142{fill:#db7843;}.cls-143{fill:#dc7b41;}</style></defs><path class="cls-1" d="M843.4,682.5h-154c-2.7,0-3.4-.5-3.4-3.3q.2-281.2,0-562.5c0-3,.8-3.4,3.6-3.4h760.1c3.2,0,3.7.9,3.7,3.8q-.2,168-.1,336c-2.6-.5-2.5-2.9-3.1-4.7q-11.7-39.9-23.2-79.8c-2-7.1-4.2-14.2-6.2-21.4-.9-3.4-2.8-4.8-6.3-4.8h-92.1c-4.4,0-4.9.5-4.9,4.9V449.1c0,4.9.4,5.2,5.9,5.2h105.4c6.4,0,12.8-.1,19.1,0,1.9,0,3.8-.2,5.4,1.2q0,111.9.1,223.8c0,2.7-.6,3.3-3.3,3.3H1099.7c1.2-3.1,4.3-1.2,6.3-2.3a10.9,10.9,0,0,1,2.5-.4c2.7-.2,5.4-.8,8-1.2l4.2-.8,4.1-.8,3.9-1a27.5,27.5,0,0,0,4.9-1.4l3.3-.8,2.6-.9,4.7-1.6c1.9-.8,3.9-1.5,5.7-2.4s4.1-1.6,6.2-2.4a34.9,34.9,0,0,0,3.4-1.5l3.3-1.7a15.4,15.4,0,0,0,3.1-1.7,43.6,43.6,0,0,1,4.2-2.3,32.6,32.6,0,0,0,4-2.4,26.5,26.5,0,0,0,4-2.4c1.4-.8,2.7-1.7,4-2.6a247.9,247.9,0,0,1,7.4-5.5,43.1,43.1,0,0,0,4-3.2,20.7,20.7,0,0,0,3.9-3.3,25.5,25.5,0,0,0,4-3.2l3.4-3.4,4.6-4.6a13.1,13.1,0,0,0,2.4-2.8,63.7,63.7,0,0,1,5-5.5c1.4-1.5,2.5-3.3,4-4.8s2.8-3.6,4-5.6,1.6-2.3,2.3-3.5c1.9-3,4-5.7,5.6-8.8a40.3,40.3,0,0,0,3.3-5.7c1.4-2.7,3.1-5.2,4-8.1a74,74,0,0,0,4.8-11.2,94.4,94.4,0,0,0,3.2-8.9c.9-2.7,1.6-5.4,2.3-8.1s1.2-4.6,1.7-6.8a177.1,177.1,0,0,0,3.1-18.9c1.2-6.5.8-13,.8-19.4V285.8c0-6.4.3-12.7-.8-19a153.5,153.5,0,0,0-3.1-19,38.2,38.2,0,0,0-1.5-6.7c-.8-2.8-1.4-5.5-2.4-8.2s-2.2-6.4-3.5-9.5a111.2,111.2,0,0,0-4.6-10.7,39.1,39.1,0,0,0-3.8-8c-1.3-1.9-2.1-4-3.3-5.8s-3.6-5.9-5.6-8.8l-2.6-4c-1.3-1.7-2.5-3.4-3.9-5s-2.4-3.4-4-4.9-2.9-3.9-4.7-5.5l-2.7-2.6-5.4-5.5-2.7-2.6a23.2,23.2,0,0,0-4.4-3.9l-2.9-2.5c-1.5-1.3-3.1-2.5-4.7-3.7s-2.4-2-3.8-2.8a25.2,25.2,0,0,0-3.3-2.4c-1.1-.9-2.3-1.6-3.5-2.4s-3.7-1.8-5.4-3.1l-2.6-1.7a33.8,33.8,0,0,0-4.6-2.4l-3.3-1.7-3.3-1.6c-1.6-.9-3.3-1.7-4.9-2.4s-3.8-1.5-5.6-2.4l-4.8-1.6c-2.2-.9-4.5-1.2-6.6-2.1a30.3,30.3,0,0,0-3.2-1.2,35.6,35.6,0,0,0-5.6-1.5c-2.1-.7-4.3-1.1-6.4-1.6a32.5,32.5,0,0,0-4.3-.8,42.5,42.5,0,0,0-9.4-1.2,18.1,18.1,0,0,1-5.2-.7l-3.4-.5c-4.1-1-8.2-.1-12.3-.4h-38.3a26.7,26.7,0,0,1-4,0c-1.1,0-2.2.1-3.3,0a18.2,18.2,0,0,1-3.3,0,24.3,24.3,0,0,1-2.7,0H755.8a11.4,11.4,0,0,1-3.5-.5c1.3,3.9,2.1,7.8,3.5,11.5,3.8,13.4,7.9,26.7,11.6,40.1,1.4,5.4,3.1,10.6,4.6,15.8,2.6,9.2,5.3,18.3,8,27.4,1.1,4.7,2.6,9.2,3.9,13.8.4,1.4.6,3,2.7,3h300.9a53.6,53.6,0,0,0,7,.9c1.3.1,2.5.6,3.7.7a46.7,46.7,0,0,1,6.4,1.8c1.4.6,2.9,1,4.3,1.7a72.9,72.9,0,0,1,7.8,4.2,32.7,32.7,0,0,1,3.6,2.5c.8.7,1.8,1.2,2.6,1.9l5.8,5.7a36.9,36.9,0,0,1,5,6.1,82.4,82.4,0,0,1,5.4,9,59.8,59.8,0,0,1,4.8,24c-.2,16.9-.1,33.7-.1,50.5,0,2,.4,4.1-1,5.9-3.6,1.7-7.4.6-11.1.8s-4.6.1-6.8.1H992.6c-15.9,0-31.8-.1-47.8.1-31.3-.3-62.6-.1-93.9-.1-1.2,0-2.4.3-3.6.4a27.4,27.4,0,0,1-5,.4,24,24,0,0,0-6,.6c-2.1.2-4.2.8-6.3.9a28.3,28.3,0,0,0-4.2.7l-4.2.9a54.7,54.7,0,0,0-7,1.6c-2.5.4-4.9,1.5-7.3,2.2a18.9,18.9,0,0,0-3.4.9c-1.9.5-3.7,1.5-5.7,2.1l-2.6.9c-1.3.7-2.7,1.1-4,1.7s-4.8,1.9-7.1,3.1l-5,2.4c-2,.9-3.7,2.3-5.7,3.3s-4,2.4-6.1,3.5-5.5,3.6-8.1,5.4l-5.2,4a73.7,73.7,0,0,0-8.6,7.1,32.8,32.8,0,0,0-5.6,4.9c-1.2,1.1-2.3,2.2-3.4,3.4s-2.8,2.7-4.1,4.1-3.5,4.5-5.6,6.4-3.9,4.7-5.7,7.3a62,62,0,0,0-4.9,7.3,121.2,121.2,0,0,0-12,21,106.8,106.8,0,0,0-7.4,18.2,163.1,163.1,0,0,0-8,34.5,172,172,0,0,0,8.1,75.7,102.7,102.7,0,0,0,7.3,17.5,125.9,125.9,0,0,0,12,21.1,70.2,70.2,0,0,0,4.9,7.2c1.7,2.6,3.9,4.8,5.7,7.3s3.6,4.4,5.6,6.4l4.1,4.2,3.3,3.3a33.5,33.5,0,0,0,5.7,4.9,73.7,73.7,0,0,0,8.6,7.1c1.6,1.4,3.4,2.7,5.2,4s5.3,3.7,8.1,5.4,4,2.6,6.1,3.5a66.5,66.5,0,0,0,5.8,3.3c2.1,1.1,4.2,2.2,6.4,3.1s3.8,1.5,5.6,2.4l4.1,1.7,2.6.9c2.9,1,5.7,2.4,8.8,3s4.9,1.7,7.4,2.2a60.4,60.4,0,0,0,7.1,1.6c1.4.3,2.7.7,4.1.9a30.7,30.7,0,0,0,4.2.7c2.2.1,4.2.7,6.3.9s4.8.4,7,1.4C843.6,681.7,843.7,682.1,843.4,682.5Z" transform="translate(-686 -113.3)"/><path class="cls-2" d="M1453.3,455.5c-1.6-.1-3.2-.3-4.8-.3H1320.4c-3.3,0-4.3-.7-4.2-4.2q.1-52.8,0-105.7c0-3.1.7-4,3.9-4h96.5c3.1,0,4.1,1,4.9,3.8q15,52,30.2,104c.4,1.4.3,3,1.6,4Z" transform="translate(-686 -113.3)"/><path class="cls-3" d="M1094.8,682.5h-.8c-2.2-1.3-5,.7-7-1.3s-.8-4-.8-6V575.6a17.3,17.3,0,0,1,.6-6,4.1,4.1,0,0,1,2.4-2.1c2.2-.5,4.3-.9,6.1.9s.8,3.7.8,5.6q.2,51.2,0,102.3C1096.1,678.5,1096.4,680.7,1094.8,682.5Z" transform="translate(-686 -113.3)"/><path class="cls-4" d="M843.4,682.5v-.7c-1.2-1.5-1.3-3.2-1.3-5V572.1c0-2.1-.1-4.4,2.4-5.5s4.4-.4,6,1.7.7,4,.7,6V675.6a15.3,15.3,0,0,1-.5,5.2,3.3,3.3,0,0,1-1.6,1.7Z" transform="translate(-686 -113.3)"/><path class="cls-5" d="M1106.3,680.9c-2,1.4-4.7-.2-6.6,1.6h-1.6c-1.4-1.6-1.3-3.5-1.3-5.4,0-34.9-.1-69.9,0-104.8a13,13,0,0,1,.5-4.4c1.8-2.5,4-3.6,6.9-1.9,1.2,2.3.8,4.8.8,7.2.1,33.1.1,66.3,0,99.4A19.8,19.8,0,0,0,1106.3,680.9Z" transform="translate(-686 -113.3)"/><path class="cls-6" d="M1098.1,567.5v115h-3.3V568.2C1095.5,566.1,1096.8,566.5,1098.1,567.5Z" transform="translate(-686 -113.3)"/><path class="cls-7" d="M981.3,682.5H953.7a1.1,1.1,0,0,1,.4-1.2,6.4,6.4,0,0,1,3.3-.7h17.1c1.4,0,2.7-.1,4,0a5.6,5.6,0,0,1,2.6.7C981.5,681.7,981.6,682.1,981.3,682.5Z" transform="translate(-686 -113.3)"/><path class="cls-8" d="M1030.8,682.5h-26a.8.8,0,0,1,.1-1.1,3.4,3.4,0,0,1,1.2-.6,33.9,33.9,0,0,1,4.5-.2c1.1-.1,2.2,0,3.3,0a48.6,48.6,0,0,1,5.4,0,29.4,29.4,0,0,1,4.2,0c2.3,0,4.6-.4,6.8.7A1.1,1.1,0,0,1,1030.8,682.5Z" transform="translate(-686 -113.3)"/><path class="cls-9" d="M1078.6,682.5h-25.1a1,1,0,0,1,.4-1.2,8.7,8.7,0,0,1,4.5-.7c1.2-.1,2.3,0,3.4,0h13.9a5.4,5.4,0,0,1,2.7.7A.8.8,0,0,1,1078.6,682.5Z" transform="translate(-686 -113.3)"/><path class="cls-10" d="M849.1,682.5l.8-.9a6,6,0,0,1,4.1-1.1h12.7c2.1.1,4.3-.3,6.3.8a1.1,1.1,0,0,1,.4,1.2Z" transform="translate(-686 -113.3)"/><path class="cls-11" d="M953.7,681.7v.8H929.4c-.3-.4-.2-.8.2-1.2a5.6,5.6,0,0,1,2.6-.7c1.7-.1,3.5,0,5.3,0a28.1,28.1,0,0,1,4.1,0c2.1-.1,4.1-.1,6.2,0s3.7-.3,5.4.6C953.4,681.4,953.5,681.6,953.7,681.7Z" transform="translate(-686 -113.3)"/><path class="cls-12" d="M1004.8,681.7v.8H981.3v-.8a3.5,3.5,0,0,1,2.4-1h9.1c1.4-.1,2.7,0,4,0a38.4,38.4,0,0,1,4.8,0A3.7,3.7,0,0,1,1004.8,681.7Z" transform="translate(-686 -113.3)"/><path class="cls-13" d="M913.2,682.5H890.5a.8.8,0,0,1,.1-1.2,6.2,6.2,0,0,1,3.3-.7c1.1-.1,2.2,0,3.3,0s4-.1,6.1,0a19.3,19.3,0,0,1,3.4,0c2,0,4.1-.3,6,.7A1.1,1.1,0,0,1,913.2,682.5Z" transform="translate(-686 -113.3)"/><path class="cls-14" d="M1053.5,681.7v.8h-22.7v-.8l.4-.4c1.7-.9,3.4-.6,5.1-.7h12.9a7.2,7.2,0,0,1,3.8.7Z" transform="translate(-686 -113.3)"/><path class="cls-15" d="M890.5,681.7v.8H873.4v-.8l.5-.4a7.5,7.5,0,0,1,3.9-.7c2-.1,4-.1,6.1,0a19.3,19.3,0,0,1,3.4,0A3.9,3.9,0,0,1,890.5,681.7Z" transform="translate(-686 -113.3)"/><path class="cls-16" d="M913.2,682.5v-.8l.4-.4a7.5,7.5,0,0,1,3.3-.7c1.9,0,3.9-.1,5.9,0a19.3,19.3,0,0,1,3.4,0,3.7,3.7,0,0,1,3.2,1.1v.8Z" transform="translate(-686 -113.3)"/><path class="cls-17" d="M1078.6,682.5v-.8a3.1,3.1,0,0,1,1.1-.8,18.3,18.3,0,0,1,4.7-.3,5,5,0,0,1,3.1,1c2.2.5,4.5-.8,6.5.9Z" transform="translate(-686 -113.3)"/><path class="cls-18" d="M1149.2,126.4a13.7,13.7,0,0,1,5.7,2.4c1.1,1.3,1.2,2.9,1.3,4.6V653.3c0,4.6,0,9.2.2,13.8a19.4,19.4,0,0,1-6.1,2.6c-2,.1-2-1.5-2.3-2.8a30.2,30.2,0,0,1-.2-5.2q0-263.8.1-527.5C1147.9,131.6,1147.2,128.7,1149.2,126.4Z" transform="translate(-686 -113.3)"/><path class="cls-19" d="M1149.2,126.4V664c0,1.9-.9,4.1,1.1,5.7a15.1,15.1,0,0,1-6,2.2c-1.6-1.6-1.3-3.7-1.3-5.7,0-48.4-.1-96.7.1-145,.2-56.6-.5-113.2,0-169.8.2-21.7.7-43.5.3-65.2-.8-51.4-.2-102.9-.4-154.3,0-2.5-.6-5.2,1.4-7.3A9.8,9.8,0,0,1,1149.2,126.4Z" transform="translate(-686 -113.3)"/><path class="cls-20" d="M1144.4,124.6c-.1,2-.1,4-.1,6V671.9a9.6,9.6,0,0,1-4.8,1.7c-1.1.1-1.4-.6-1.7-1.4a8.5,8.5,0,0,1-.4-3.2c.1-44.9-.1-89.7.1-134.5a1.9,1.9,0,0,1,.1-.8c4.6-11.8,3.9-24.2,3.8-36.4s.4-26.7-.3-40.1c-.4-1.7-2.7-1.6-3.2-3.3a13.1,13.1,0,0,1-.5-4.8V347.6c0-1.6-.2-3.3.5-4.8s3.3-.6,4.8-1.5c0-20.5.1-41-.1-61.4,0-6.9-2.6-13.2-4.9-19.5a36.1,36.1,0,0,1-1.2-10.4V129.7c0-2.5-.6-5.1,1.3-7.3C1140,123.1,1142.4,123.2,1144.4,124.6Z" transform="translate(-686 -113.3)"/><path class="cls-21" d="M1156.4,667.1c-.9-.2-1.5-.6-1.5-1.6V128.8a11.4,11.4,0,0,1,4.9,2.2c1.4,1.9,1.1,4.1,1.1,6.3V658.5c0,2.4.6,4.9-1.2,7A5.7,5.7,0,0,1,1156.4,667.1Z" transform="translate(-686 -113.3)"/><path class="cls-22" d="M1166.4,134.4a11.9,11.9,0,0,1,4.7,2.5,22,22,0,0,1,.5,5.7V652.5c0,2.6.4,5.2-1.3,7.5l-4.1,2.2c-1.8-.1-1.8-1.7-2-2.9a40.1,40.1,0,0,1-.1-4.9v-512a22.7,22.7,0,0,1,.2-5.2C1164.5,135.9,1164.5,134.3,1166.4,134.4Z" transform="translate(-686 -113.3)"/><path class="cls-23" d="M1173.6,138.4c1.7,1.2,4,1.7,5.5,3.4a13.3,13.3,0,0,1,.5,4V649.7c0,1.9.1,3.8-1.2,5.4a9.2,9.2,0,0,1-3.9,2.4c-2.2,0-1.9-1.9-2.2-3.2a31.1,31.1,0,0,1-.1-5.3V146.6C1172.2,143.8,1171.4,140.8,1173.6,138.4Z" transform="translate(-686 -113.3)"/><path class="cls-24" d="M1182.6,144.1a9.1,9.1,0,0,1,3.2,2.2c1.4,2.1,1.2,4.4,1.2,6.7V640.1c0,3.1.3,6.2-.2,9.3a13.5,13.5,0,0,1-4.4,3.1c-2,0-2.4-1.5-2.7-3a21.7,21.7,0,0,1-.1-3.6V151a22.6,22.6,0,0,1,.1-3.7C1180,145.7,1180.3,144,1182.6,144.1Z" transform="translate(-686 -113.3)"/><path class="cls-25" d="M745.2,383.9a51.6,51.6,0,0,1,8.9-7.3c2,2,1.4,4.6,1.4,6.9.1,24.3,0,48.6,0,72.9q0,91.5,0,183c0,2.6.7,5.4-1.4,7.7a44.4,44.4,0,0,1-8.9-7.3,14.1,14.1,0,0,1-1.3-6.7q.1-121.2,0-242.5A14.1,14.1,0,0,1,745.2,383.9Z" transform="translate(-686 -113.3)"/><path class="cls-26" d="M1233.4,598.2a42,42,0,0,1-5.7,8.9c-1.7-.4-1.7-1.9-1.8-3.2a21.7,21.7,0,0,1-.1-3.6q0-202,.1-404c0-2.3-1.3-5.2,1.9-6.7a39.6,39.6,0,0,1,5.7,8.9,53.2,53.2,0,0,1,.5,8.9V588.9A41.6,41.6,0,0,1,1233.4,598.2Z" transform="translate(-686 -113.3)"/><path class="cls-27" d="M767.2,656.3a44.4,44.4,0,0,1-8.1-5.5c-1.7-2.4-1.3-5.2-1.3-7.8q-.1-95.7-.1-191.3,0-35.8.1-71.8c0-2.4-.3-4.9,1.3-7a39.4,39.4,0,0,1,8.1-5.4c1.8,2,1.3,4.6,1.3,6.9V648.9C768.5,651.4,769.1,654.1,767.2,656.3Z" transform="translate(-686 -113.3)"/><path class="cls-28" d="M1210,629a17.2,17.2,0,0,1-4.8,4.9c-1.9-.2-1.8-1.7-2.1-3a46.4,46.4,0,0,1-.1-5.3V170.1c0-2.8-.7-5.8,1.4-8.2a21,21,0,0,1,5.7,5.8,25.8,25.8,0,0,1,.3,4.8V623.8A18.3,18.3,0,0,1,1210,629Z" transform="translate(-686 -113.3)"/><path class="cls-29" d="M1217.3,620.9c-1.1,2.4-3.5,3.6-5.1,5.6-1.5-.3-1.5-1.6-1.7-2.8a18.2,18.2,0,0,1-.1-3.3q0-222,.1-444c0-2.2-1.3-5.1,2-6.3a24.3,24.3,0,0,1,4.9,5.7,34.3,34.3,0,0,1,.4,5.6V614A26.8,26.8,0,0,1,1217.3,620.9Z" transform="translate(-686 -113.3)"/><path class="cls-30" d="M703.8,438.2A103.4,103.4,0,0,1,716,417.1c2,2.1,1.4,4.8,1.4,7.3V567.3c0,11.1.1,22.2,0,33.2,0,2.1.4,4.4-1.4,6.1a100.8,100.8,0,0,1-12.2-21.1,37.5,37.5,0,0,1-1.2-10V448.2A37.5,37.5,0,0,1,703.8,438.2Z" transform="translate(-686 -113.3)"/><path class="cls-31" d="M1186.8,649.4c-1.5-.9-1.1-2.3-1.1-3.6V148a9.7,9.7,0,0,1,.1-1.7l3.9,3a7.3,7.3,0,0,1,1.3,4.6c0,1.2.1,2.4.1,3.6q0,240.8-.1,481.4c0,2.8.5,5.7-1.2,8.3A8.1,8.1,0,0,1,1186.8,649.4Z" transform="translate(-686 -113.3)"/><path class="cls-32" d="M1189.8,647.2c0-2.1-.1-4.1-.1-6.1V149.3a18,18,0,0,1,4.9,3.8,22,22,0,0,1,.5,5.7V636c0,2.7.4,5.5-1.2,7.9A13.3,13.3,0,0,1,1189.8,647.2Z" transform="translate(-686 -113.3)"/><path class="cls-33" d="M779.3,360.6a14.9,14.9,0,0,1,4.9-2.4c2-.8,2.3.7,2.6,2a15.6,15.6,0,0,1,.4,4.8q0,147.5-.1,294.7c0,2.2.5,4.6-1.3,6.6a23.1,23.1,0,0,1-6.5-3.2c-1.7-2.1-1.3-4.6-1.3-7V368.5C778,365.8,777.5,363,779.3,360.6Z" transform="translate(-686 -113.3)"/><path class="cls-34" d="M1201.8,637.1a11,11,0,0,1-3.8,3.3c-1.9,0-1.9-1.5-2.1-2.8a36.2,36.2,0,0,1-.2-5.7V163.4c0-2.7-.8-5.7,1.4-8.1a18.3,18.3,0,0,1,4.9,4.3,34.3,34.3,0,0,1,.4,5.6v465C1202.4,632.5,1202.6,634.8,1201.8,637.1Z" transform="translate(-686 -113.3)"/><path class="cls-35" d="M767.2,656.3V367.5a25.4,25.4,0,0,1,6.4-3.7c1.8,1.8,1.4,4.3,1.4,6.5V652.2c0,2.7.7,5.5-1.4,7.8A25.4,25.4,0,0,1,767.2,656.3Z" transform="translate(-686 -113.3)"/><path class="cls-36" d="M797.8,352.5a17.5,17.5,0,0,1,5.9-2.2c.7,1.4.5,2.9.5,4.3v131c0,3-.4,5.9,0,8.9-.3,6-2.1,11.8-1.9,17.9a56,56,0,0,0,4.6,21.5c.7,1.6,1.6,3.2,1.3,5v48.9c0,26.6.1,53.1,0,79.6,0,2.4.6,4.9-1.3,7a29.7,29.7,0,0,1-9.1-3.1,18.9,18.9,0,0,1-.3-4.1V356.5A17.5,17.5,0,0,1,797.8,352.5Z" transform="translate(-686 -113.3)"/><path class="cls-37" d="M1217.3,620.9c-1.3-1.2-.8-2.8-.8-4.2V180.3c0-1.5-.6-3.3.9-4.5a17.2,17.2,0,0,1,4,4.9,30.4,30.4,0,0,1,.5,6V608.3a39.4,39.4,0,0,1-.6,7.7A18.7,18.7,0,0,1,1217.3,620.9Z" transform="translate(-686 -113.3)"/><path class="cls-38" d="M1245.6,573a52.3,52.3,0,0,1-4.9,11.4c-1.8-.4-1.7-1.9-1.9-3.2a38.5,38.5,0,0,1-.1-4.8V220.3a39.7,39.7,0,0,1,.1-4.9c.2-1.3.1-2.8,2-3.1a59,59,0,0,1,4.7,10.6c1.2,8.3.7,16.7.7,25V548C1246.2,556.3,1246.6,564.7,1245.6,573Z" transform="translate(-686 -113.3)"/><path class="cls-39" d="M785.8,666.3V363c0-1.7,1.2-4-1.6-4.8a23.9,23.9,0,0,1,7.3-3.2c1.8,1.9,1.3,4.3,1.3,6.5.1,23.7,0,47.3,0,70.9q0,114.3,0,228.6c0,2.6.7,5.4-1.3,7.8A17.1,17.1,0,0,1,785.8,666.3Z" transform="translate(-686 -113.3)"/><path class="cls-40" d="M1221.3,616c-1.3-1.2-.7-2.8-.7-4.2q-.1-213.4,0-426.9c0-1.4-.6-3,.8-4.2a20.1,20.1,0,0,1,3.8,4.9,30.5,30.5,0,0,1,.6,6V602.7a49.7,49.7,0,0,1-.4,7.7A22.4,22.4,0,0,1,1221.3,616Z" transform="translate(-686 -113.3)"/><path class="cls-41" d="M1166.4,134.4c-1.5,1-1,2.7-1,4.1v520c0,1.3-.4,2.7.8,3.7a5.9,5.9,0,0,1-3.2,1.7c-1.9-.2-1.8-1.7-2-3a22.9,22.9,0,0,1-.1-3.7V139.5a28.1,28.1,0,0,1,.1-4.1c.3-1.2.3-2.8,2.2-2.7A6.2,6.2,0,0,1,1166.4,134.4Z" transform="translate(-686 -113.3)"/><path class="cls-42" d="M773.6,660q0-65.8.1-131.7,0-82.3-.1-164.5a17.8,17.8,0,0,1,5.7-3.2V663.1A18.6,18.6,0,0,1,773.6,660Z" transform="translate(-686 -113.3)"/><path class="cls-43" d="M1173.6,138.4c-.1,1.5-.1,3-.1,4.4V652.2c0,1.8-.8,3.8,1,5.3a9.4,9.4,0,0,1-4.2,2.5V141.9c0-1.6-.7-3.5.8-5A5.4,5.4,0,0,1,1173.6,138.4Z" transform="translate(-686 -113.3)"/><path class="cls-44" d="M1197.1,155.3c0,1.6-.1,3.2-.1,4.8q0,237.6.1,475c0,1.8-.8,3.8.9,5.3a11.5,11.5,0,0,1-4.1,3.5c0-1.7-.1-3.5-.1-5.2V158.2c0-1.7-.7-3.6.8-5.1A5.4,5.4,0,0,1,1197.1,155.3Z" transform="translate(-686 -113.3)"/><path class="cls-45" d="M1240.8,212.3c-1.3,1.3-.8,2.8-.8,4.3V580.1c0,1.4-.5,3,.7,4.3a32.5,32.5,0,0,1-4.1,8.1c-1.7-.4-1.7-1.9-1.8-3.2a30.2,30.2,0,0,1-.2-5.2V212.6a30.9,30.9,0,0,1,.2-5.3c.2-1.3.1-2.8,1.9-3.1A32.5,32.5,0,0,1,1240.8,212.3Z" transform="translate(-686 -113.3)"/><path class="cls-46" d="M1201.8,637.1c-1.2-1.3-.7-2.8-.7-4.3V164.1c0-1.5-.6-3.3.9-4.5a5.9,5.9,0,0,1,2.4,2.3c0,1.6-.1,3.2-.1,4.9q0,230.8.1,461.7c0,1.8-.8,3.8.8,5.4A10.4,10.4,0,0,1,1201.8,637.1Z" transform="translate(-686 -113.3)"/><path class="cls-47" d="M732.3,627.4a39.1,39.1,0,0,1-5.7-6.5,14.1,14.1,0,0,1-1.3-6.7V409.5a13.5,13.5,0,0,1,1.3-6.6,30,30,0,0,1,5.8-6.5c1.8.2,1.7,1.8,1.9,3a33.9,33.9,0,0,1,.2,4.5v216a33.1,33.1,0,0,1-.2,4.4C734.1,625.6,734.2,627.1,732.3,627.4Z" transform="translate(-686 -113.3)"/><path class="cls-48" d="M759.1,372.9V650.8a16.7,16.7,0,0,1-5-3.7c.1-8.9.1-17.8.1-26.7V382.3c0-1.9,0-3.8-.1-5.7A18,18,0,0,1,759.1,372.9Z" transform="translate(-686 -113.3)"/><path class="cls-49" d="M1163.2,132.7c-1.9,1.5-1,3.5-1,5.3q-.2,260.4,0,520.9c0,1.6-.7,3.5.8,5a5.7,5.7,0,0,1-3.3,1.6V134.7c0-1.2.1-2.5.1-3.7A7.8,7.8,0,0,1,1163.2,132.7Z" transform="translate(-686 -113.3)"/><path class="cls-50" d="M1236.7,204.2c-1.3,1.3-.7,2.8-.7,4.3q-.1,189.8,0,379.7c0,1.4-.5,3,.6,4.3a20.2,20.2,0,0,1-3.2,5.7c-1.2-1.3-.7-2.9-.7-4.3V202.8c0-1.5-.5-3,.8-4.3A18.9,18.9,0,0,1,1236.7,204.2Z" transform="translate(-686 -113.3)"/><path class="cls-51" d="M791.5,668.8V355a8.8,8.8,0,0,1,4.1-1.7c1.7,1.9,1.3,4.3,1.3,6.6V662.6c0,2.7.7,5.5-1.3,7.8A8.6,8.6,0,0,1,791.5,668.8Z" transform="translate(-686 -113.3)"/><path class="cls-52" d="M1182.6,144.1a2.9,2.9,0,0,0-1.8,2.9V646.6c0,2.1-.9,4.5,1.6,5.9a9,9,0,0,1-4,2.6V146.9c0-1.7-.6-3.5.7-5.1A8.2,8.2,0,0,1,1182.6,144.1Z" transform="translate(-686 -113.3)"/><path class="cls-53" d="M745.2,383.9c0,1.6.1,3.2.1,4.9V635c0,1.6-.1,3.2-.1,4.8a22.7,22.7,0,0,1-5.6-5.1,21.6,21.6,0,0,1-.5-5.6V394.7a22,22,0,0,1,.5-5.7A22.7,22.7,0,0,1,745.2,383.9Z" transform="translate(-686 -113.3)"/><path class="cls-54" d="M726.6,402.9v218a39.2,39.2,0,0,1-5.7-7.2,16,16,0,0,1-1.3-7.1V417.2a14.4,14.4,0,0,1,1.4-7.1A27.9,27.9,0,0,1,726.6,402.9Z" transform="translate(-686 -113.3)"/><path class="cls-55" d="M1245.6,573c-1.3-1.4-.7-3.1-.7-4.6V227.2c0-1.4-.5-3,.6-4.3a46.2,46.2,0,0,1,3.3,9.7c.8,5.8.5,11.6.5,17.4V545.9c0,6.1.2,12.2-.5,18.2A39.4,39.4,0,0,1,1245.6,573Z" transform="translate(-686 -113.3)"/><path class="cls-56" d="M1212.5,170.1c-1.4,1.2-.9,2.8-.9,4.2V622.6c0,1.3-.4,2.7.6,3.9s-1.2,1.9-2.2,2.5c-1.4-1.3-.8-3.1-.8-4.6V172.6c0-1.6-.7-3.5.9-4.9A5.1,5.1,0,0,1,1212.5,170.1Z" transform="translate(-686 -113.3)"/><path class="cls-57" d="M795.6,670.4V353.3a2.5,2.5,0,0,1,2.2-.8c1.5,1.1,1,2.7,1,4.1V667.2c0,1.4.5,3-1,4.1S796.1,671.2,795.6,670.4Z" transform="translate(-686 -113.3)"/><path class="cls-58" d="M1225.4,610.4c-1.3-1.2-.8-2.8-.8-4.2V189.6c0-1.4-.4-2.8.6-4,.8,1.4,1.7,2.7,2.6,4-1.3,1.2-.7,2.8-.7,4.2q-.1,204.6,0,409c0,1.5-.6,3,.6,4.3A7.6,7.6,0,0,1,1225.4,610.4Z" transform="translate(-686 -113.3)"/><path class="cls-59" d="M1076.2,227.7h-8.9c-1.5-1.6-1.3-3.5-1.3-5.4q-.1-51.3,0-102.6c0-1.9-.2-3.8,1.3-5.3h8.9c1.5,1.5,1.3,3.4,1.3,5.3V222.3C1077.5,224.2,1077.6,226.1,1076.2,227.7Z" transform="translate(-686 -113.3)"/><path class="cls-60" d="M739.6,389c1.3,1.2.8,2.8.8,4.2V630.5c0,1.4.5,3-.8,4.2a10.1,10.1,0,0,1-3.2-3.3c-1.3-1.9-1.4-4-1.4-6.2V398.5c0-2.2.1-4.3,1.4-6.2A10.1,10.1,0,0,1,739.6,389Z" transform="translate(-686 -113.3)"/><path class="cls-61" d="M806.9,674.4V543c0-1.6-.4-3.3.5-4.8,3.9,3.5,7.3,7.3,8.1,12.7.1,40.1,0,80.3,0,120.4,0,1.8.2,3.8-1.3,5.3A26.8,26.8,0,0,1,806.9,674.4Z" transform="translate(-686 -113.3)"/><path class="cls-61" d="M806.9,349.3a26.8,26.8,0,0,1,7.3-2.2c1.5,1.4,1.3,3.2,1.3,4.9,0,40.3.1,80.6,0,120.9-.5,5.3-4.5,8.6-7.4,12.5-.4.6-1.2.1-1.7-.4s-.8-3.4-.8-5.2V355.1C805.6,353.1,805.4,351,806.9,349.3Z" transform="translate(-686 -113.3)"/><path class="cls-62" d="M703.8,438.2V585.5a79.1,79.1,0,0,1-7.2-17.3,42.4,42.4,0,0,1-1.3-11.2V466.8a49.7,49.7,0,0,1,1.2-10.8A78.5,78.5,0,0,1,703.8,438.2Z" transform="translate(-686 -113.3)"/><path class="cls-63" d="M1116.7,236.7l-8.1-4.2c-1.3-1.8-1.3-3.8-1.3-5.8V121.6c0-2-.2-4.1,1.3-5.7a29.6,29.6,0,0,1,9.8,1.6c-.7,10.2-.3,20.4-.3,30.6-.1,27.2,0,54.4-.1,81.6C1118,232.1,1118.6,234.6,1116.7,236.7Z" transform="translate(-686 -113.3)"/><path class="cls-63" d="M1116.8,679.4a28.7,28.7,0,0,1-8.2,1.3c-1.4-1.3-1.3-3.2-1.3-4.9V568.2a16.6,16.6,0,0,1,.3-3.2c2.4-4.3,6.6-6.1,9.8-4.3a13.3,13.3,0,0,1,.6,5.2c.1,35.8.1,71.5,0,107.3C1118,675.3,1118.3,677.5,1116.8,679.4Z" transform="translate(-686 -113.3)"/><path class="cls-64" d="M721,410.1q-.2,101.7-.1,203.6a26.5,26.5,0,0,1-4.9-7.1c0-1.9.1-3.8.1-5.7V422.8c0-1.9-.1-3.8-.1-5.7A26.4,26.4,0,0,1,721,410.1Z" transform="translate(-686 -113.3)"/><path class="cls-65" d="M1256,530.9a97.8,97.8,0,0,1-3.2,18.6c-1.6-.3-1.6-1.6-1.8-2.8s0-2.4,0-3.6V253.6c0-2.2-1.1-5,1.9-6.4a98.7,98.7,0,0,1,3.1,18.7c-.7,3.1.3,6.1.3,9.2q-.1,123.3,0,246.5C1256.3,524.7,1255.4,527.8,1256,530.9Z" transform="translate(-686 -113.3)"/><path class="cls-66" d="M965.1,227.7H957c-1.5-1.6-1.3-3.5-1.3-5.4q-.2-51.3,0-102.6c0-1.9-.2-3.8,1.3-5.3h8.1c1.5,1.5,1.3,3.4,1.3,5.3V222.3C966.4,224.2,966.5,226.1,965.1,227.7Z" transform="translate(-686 -113.3)"/><path class="cls-36" d="M798.8,114.4h8.1c1.5,1.5,1.3,3.4,1.3,5.3q.1,51.3,0,102.6c0,1.9.1,3.8-1.3,5.4h-8.1c-1.4-1.6-1.3-3.5-1.3-5.4V119.7C797.5,117.8,797.3,115.9,798.8,114.4Z" transform="translate(-686 -113.3)"/><path class="cls-67" d="M814.2,676.6q0-61.1.1-122.2c0-1.6-.8-3.5.9-4.9,4,1.2,6.3,4.1,7.4,8,.4,5.4.2,10.8.2,16.2.1,32.6.1,65.1,0,97.7,0,2.3.5,4.9-1.3,6.9Z" transform="translate(-686 -113.3)"/><path class="cls-67" d="M815.2,474.2c-1.7-1.4-.9-3.3-.9-4.9q-.1-61.2-.1-122.2l7.3-1.7c1.3,1.3,1.3,2.9,1.3,4.5,0,38.5.1,77,0,115.5,0,.2-.1.5-.1.8A10.9,10.9,0,0,1,815.2,474.2Z" transform="translate(-686 -113.3)"/><path class="cls-68" d="M836.1,680.8c-2.2.3-4.3-.5-6.5-.9s-2-4.2-2.1-6.5V568.1c0-2.1-.2-4.3.6-6.4,3-2.1,7.6-.1,9.3,4V675.4C837.4,677.3,837.6,679.3,836.1,680.8Z" transform="translate(-686 -113.3)"/><path class="cls-68" d="M829.6,343.8c2.2-.3,4.3-1.1,6.5-.9s1.3,3.5,1.3,5.4c0,35.5.1,70.9,0,106.4a13.3,13.3,0,0,1-.4,4c-2.7,3.9-5.7,5.1-8.8,3.5-.9-1.9-.7-4-.7-6v-105C827.6,348.6,826.7,345.6,829.6,343.8Z" transform="translate(-686 -113.3)"/><path class="cls-69" d="M836.1,680.8q0-55.5.1-111c0-1.6-.8-3.5.9-4.9s5.9-.4,8,2.5c-2.7.6-1.6,2.8-1.6,4.3q-.2,52.8-.1,105.6v4.5Z" transform="translate(-686 -113.3)"/><path class="cls-3" d="M1087.5,114.4c4.4-.2,8.8-.5,13.1.6a4.1,4.1,0,0,1-2.7,1.3c-2.5,1.3-1.7,3.8-1.7,5.8-.1,14-.1,28-.1,42,0,19.2.1,38.5,0,57.8,0,2.2.4,4.6-1.3,6.5l-7.3-.7c-1.4-1.6-1.3-3.5-1.3-5.4V119.7C1086.2,117.8,1086,115.9,1087.5,114.4Z" transform="translate(-686 -113.3)"/><path class="cls-51" d="M798.8,114.4V227.7h-7.3c-1.4-1.6-1.3-3.5-1.3-5.4V119.7c0-1.9-.2-3.8,1.3-5.3Z" transform="translate(-686 -113.3)"/><path class="cls-67" d="M821.5,227.7h-7.3c-1.4-1.6-1.3-3.5-1.3-5.4V119.7c0-1.9-.2-3.8,1.3-5.3h7.3c1.5,1.5,1.3,3.4,1.3,5.3q.2,51.3,0,102.6C822.8,224.2,822.9,226.1,821.5,227.7Z" transform="translate(-686 -113.3)"/><path class="cls-70" d="M821.5,227.7V114.4h7.3c1.5,1.5,1.3,3.4,1.3,5.3q.1,51.3,0,102.6c0,1.9.1,3.8-1.3,5.4Z" transform="translate(-686 -113.3)"/><path class="cls-68" d="M828.8,227.7V114.4h7.3c1.5,1.5,1.3,3.4,1.3,5.3q.1,51.3,0,102.6c0,1.9.1,3.8-1.3,5.4Z" transform="translate(-686 -113.3)"/><path class="cls-61" d="M814.2,114.4V227.7h-7.3V114.4Z" transform="translate(-686 -113.3)"/><path class="cls-71" d="M1030.8,227.7h-7.3c-1.5-1.6-1.3-3.5-1.3-5.4q-.2-51.3,0-102.6c0-1.9-.2-3.8,1.3-5.3h7.3c1.5,1.5,1.3,3.4,1.3,5.3V222.3C1032.1,224.2,1032.2,226.1,1030.8,227.7Z" transform="translate(-686 -113.3)"/><path class="cls-72" d="M944.7,341.5h47.9a1.4,1.4,0,0,1-.5,1,8.6,8.6,0,0,1-2.3.5H964.9c-2.6.1-5.3,0-7.9,0s-2.5,0-3.8,0c-3.6,0-3.9,2.5-3.9,5.3V389c0,19.7.1,39.4,0,59.1,0,2.2.4,4.6-1,6.7a6.4,6.4,0,0,1-7,0c-1.2-1.7-1-3.8-1-5.8-.1-33.7-.1-67.5-.1-101.2a15.7,15.7,0,0,1,.5-4.8C941.5,341,943.3,341.9,944.7,341.5Z" transform="translate(-686 -113.3)"/><path class="cls-73" d="M736.4,392.3V631.4a15.6,15.6,0,0,1-4.1-4c1.3-1.3.8-2.8.8-4.3V400.6c0-1.4.5-3-.7-4.2A13,13,0,0,1,736.4,392.3Z" transform="translate(-686 -113.3)"/><path class="cls-74" d="M1252.9,247.2c-1.2,1.3-.7,2.8-.7,4.3V545.2c0,1.5-.5,3,.6,4.3-.5,2.2-1,4.3-1.6,6.5-1.8-.1-2.1-1.3-2.2-2.8s-.1-2.1-.1-3.2q0-151.7.1-303.3c0-2.1-1.5-5.1,2.2-6A20.8,20.8,0,0,1,1252.9,247.2Z" transform="translate(-686 -113.3)"/><path class="cls-75" d="M696.5,456q.2,56.1.1,112.2c-4.2-10-6.4-20.5-8-31.2a170.7,170.7,0,0,1,6.5-77.7A23.3,23.3,0,0,1,696.5,456Z" transform="translate(-686 -113.3)"/><path class="cls-76" d="M866.9,227.7h-6.4c-1.5-1.6-1.4-3.5-1.4-5.4q0-51.3.1-102.6c0-1.9-.2-3.8,1.3-5.3h6.4c1.5,1.5,1.3,3.4,1.3,5.3q.1,51.3,0,102.6C868.2,224.2,868.4,226.1,866.9,227.7Z" transform="translate(-686 -113.3)"/><path class="cls-77" d="M866.9,227.7V114.4h6.5c1.5,1.5,1.3,3.4,1.3,5.3q.1,51.3,0,102.6c0,1.9.2,3.8-1.3,5.4Z" transform="translate(-686 -113.3)"/><path class="cls-78" d="M884,227.7h-6.5c-1.4-1.6-1.3-3.5-1.3-5.4q-.2-51.3,0-102.6c0-1.9-.2-3.8,1.3-5.3H884c1.5,1.5,1.3,3.4,1.3,5.3V222.3C885.3,224.2,885.4,226.1,884,227.7Z" transform="translate(-686 -113.3)"/><path class="cls-79" d="M893.7,227.7h-6.5c-1.4-1.6-1.3-3.5-1.3-5.4V119.7c0-1.9-.2-3.8,1.3-5.3h6.5c1.5,1.5,1.3,3.4,1.3,5.3V222.3C895,224.2,895.1,226.1,893.7,227.7Z" transform="translate(-686 -113.3)"/><path class="cls-80" d="M860.5,114.4V227.7H854c-1.5-1.6-1.3-3.5-1.3-5.4q-.2-51.3,0-102.6c0-1.9-.2-3.8,1.3-5.3Z" transform="translate(-686 -113.3)"/><path class="cls-81" d="M903.4,227.7h-6.5c-1.4-1.6-1.3-3.5-1.3-5.4V119.7c0-1.9-.1-3.8,1.3-5.3h6.5c1.5,1.5,1.3,3.4,1.3,5.3q.1,51.3,0,102.6C904.7,224.2,904.9,226.1,903.4,227.7Z" transform="translate(-686 -113.3)"/><path class="cls-82" d="M916.4,114.4h6.5c1.5,1.5,1.3,3.4,1.3,5.3V222.3c0,1.9.1,3.8-1.3,5.4h-6.5c-1.4-1.6-1.3-3.5-1.3-5.4V119.7C915.1,117.8,914.9,115.9,916.4,114.4Z" transform="translate(-686 -113.3)"/><path class="cls-72" d="M948,227.7h-6.4c-1.5-1.6-1.3-3.5-1.4-5.4q0-51.3.1-102.6c0-1.9-.2-3.8,1.3-5.3H948c1.5,1.5,1.3,3.4,1.3,5.3q.2,51.3,0,102.6C949.3,224.2,949.5,226.1,948,227.7Z" transform="translate(-686 -113.3)"/><path class="cls-83" d="M906.7,114.4h6.5c1.5,1.5,1.3,3.4,1.3,5.3V222.3c0,1.9.1,3.8-1.3,5.4h-6.5c-1.4-1.6-1.3-3.5-1.3-5.4q-.1-51.3,0-102.6C905.4,117.8,905.2,115.9,906.7,114.4Z" transform="translate(-686 -113.3)"/><path class="cls-84" d="M1122.4,118.3a14,14,0,0,1,6.6,1.6,13.3,13.3,0,0,1,.4,4V240.1c0,2.1.4,4.4-1.3,6.2l-5.7-5.5a9.3,9.3,0,0,1-1.2-5.4V123.2c0-1.5-.1-3,.7-4.3Z" transform="translate(-686 -113.3)"/><path class="cls-33" d="M785.8,227.7c-1.4.4-1.9-.4-2.3-1.6l-4.2-15.9a74,74,0,0,1-1.3-14.1c.1-24.9,0-49.8.1-74.8,0-2.3-.6-4.9,1.3-6.9h6.4c1.5,1.5,1.3,3.4,1.3,5.3q.1,51.3,0,102.6C787.1,224.2,787.3,226.1,785.8,227.7Z" transform="translate(-686 -113.3)"/><path class="cls-42" d="M779.4,114.4q-.1,47.8-.1,95.8a273.5,273.5,0,0,1-8.1-27.7,81.4,81.4,0,0,1-1.3-14.8c.1-15.7,0-31.5,0-47.2,0-2.1-.3-4.4,1.3-6.1Z" transform="translate(-686 -113.3)"/><path class="cls-85" d="M1137.8,122.4q0,69-.1,138l-4.8-8.2a15.7,15.7,0,0,1-1.3-6.7V127.3a13.6,13.6,0,0,1,.4-4c.4-1.3.9-2.6,2.8-1.9A4.2,4.2,0,0,1,1137.8,122.4Z" transform="translate(-686 -113.3)"/><path class="cls-5" d="M1098.1,115.1h2.5l3.2.2c1.3,1.7,1.3,3.7,1.3,5.8,0,35.4-.1,70.9,0,106.3a7.5,7.5,0,0,1-.5,3.6l-6.5-1.8c-1.5-1.5-1.3-3.5-1.3-5.3-.1-34.4-.1-68.9,0-103.3C1096.8,118.6,1096.6,116.7,1098.1,115.1Z" transform="translate(-686 -113.3)"/><path class="cls-86" d="M841.8,342.2l4.9-.2c1.5,1.5,1.3,3.5,1.3,5.3v104a10.8,10.8,0,0,1-.7,4.7c-1.6,2.1-3.6,2.5-6,1.6s-1.6-3.4-1.6-5.2c0-35-.1-69.9,0-104.9C839.7,345.6,839.5,343.4,841.8,342.2Z" transform="translate(-686 -113.3)"/><path class="cls-87" d="M1030.8,227.7V114.4h5.6c1.5,1.4,1.2,3.2,1.2,4.9.1,34.5.1,68.9,0,103.4,0,1.8.2,3.6-1.2,5Z" transform="translate(-686 -113.3)"/><path class="cls-88" d="M1019.4,227.7h-5.7c-1.4-1.6-1.3-3.5-1.3-5.4V119.7c0-1.9-.2-3.8,1.3-5.3h5.7c1.5,1.5,1.3,3.4,1.3,5.3V222.3C1020.7,224.2,1020.8,226.1,1019.4,227.7Z" transform="translate(-686 -113.3)"/><path class="cls-69" d="M836.1,227.7V114.4h5.7c1.5,1.5,1.3,3.4,1.3,5.3V222.3c0,1.9.1,3.8-1.3,5.4Z" transform="translate(-686 -113.3)"/><path class="cls-89" d="M974.8,227.7h-5.7c-1.4-1.6-1.3-3.5-1.3-5.4V119.7c0-1.9-.2-3.8,1.3-5.3h5.7c1.5,1.5,1.3,3.4,1.3,5.3V222.3C976.1,224.2,976.2,226.1,974.8,227.7Z" transform="translate(-686 -113.3)"/><path class="cls-90" d="M948,227.7V114.4h5.7c1.5,1.5,1.3,3.4,1.3,5.3q.2,51.3,0,102.6c0,1.9.1,3.8-1.3,5.4Z" transform="translate(-686 -113.3)"/><path class="cls-39" d="M785.8,227.7V114.4h5.7V227.7Z" transform="translate(-686 -113.3)"/><path class="cls-91" d="M1067.3,114.4V227.7h-5.7c-1.4-1.6-1.3-3.5-1.3-5.4q-.1-51.3,0-102.6c0-1.9-.2-3.8,1.3-5.3Z" transform="translate(-686 -113.3)"/><path class="cls-92" d="M937.5,227.7h-5.7c-1.4-1.6-1.3-3.5-1.3-5.4V119.7c0-1.9-.2-3.8,1.3-5.3h5.7c1.5,1.5,1.3,3.4,1.3,5.3V222.3C938.8,224.2,938.9,226.1,937.5,227.7Z" transform="translate(-686 -113.3)"/><path class="cls-93" d="M931.8,114.4V227.7h-5.7c-1.4-1.6-1.3-3.5-1.3-5.4V119.7c0-1.9-.1-3.8,1.3-5.3Z" transform="translate(-686 -113.3)"/><path class="cls-94" d="M1134.8,121.4c-2.7.5-1.8,2.7-1.8,4.3-.1,18.8,0,37.7,0,56.5q-.1,35.1-.1,70l-4.8-5.9V123.6c0-1.3-.4-2.7.9-3.7A11.7,11.7,0,0,1,1134.8,121.4Z" transform="translate(-686 -113.3)"/><path class="cls-36" d="M806.9,349.3V480.8c0,1.6-.4,3.2.6,4.7.3,3.9-1.6,6.9-4,9.7-1-1.3-.6-2.8-.6-4.3V355.4c0-1.8-.3-3.5.8-5.1A5.3,5.3,0,0,1,806.9,349.3Z" transform="translate(-686 -113.3)"/><path class="cls-69" d="M841.8,342.2c-1,1.5-.8,3.1-.8,4.7V452.6c0,1.6-.6,3.3.9,4.6-1.2,2.5-3.3,2.9-5.8,2.2V342.9A18.2,18.2,0,0,1,841.8,342.2Z" transform="translate(-686 -113.3)"/><path class="cls-95" d="M1108.6,564.1V680.7l-2.3.2c-1.9.1-2.6-.8-2.6-2.7s.1-4.8.1-7.3v-105Q1105.3,562.8,1108.6,564.1Z" transform="translate(-686 -113.3)"/><path class="cls-95" d="M1104.6,230.9c-1.1-1.6-.8-3.4-.8-5.2V115.2c1.5,1,3.2.3,4.8.7V232.5Z" transform="translate(-686 -113.3)"/><path class="cls-86" d="M841.8,227.7V114.4h4.9c1.5,1.5,1.3,3.4,1.3,5.3V222.3c0,1.9.1,3.8-1.3,5.4Z" transform="translate(-686 -113.3)"/><path class="cls-96" d="M996.7,114.4h4.9c1.5,1.5,1.3,3.4,1.3,5.3V222.3c0,1.9.1,3.8-1.3,5.4h-4.9c-1.4-1.6-1.3-3.5-1.3-5.4V119.7C995.4,117.8,995.2,115.9,996.7,114.4Z" transform="translate(-686 -113.3)"/><path class="cls-97" d="M992.6,227.7h-4.8c-1.4-1.6-1.3-3.5-1.3-5.4q-.2-51.3,0-102.6c0-1.9-.2-3.8,1.3-5.3h4.8c1.5,1.5,1.3,3.4,1.3,5.3q.1,51.3.1,102.6C994,224.2,994.1,226.1,992.6,227.7Z" transform="translate(-686 -113.3)"/><path class="cls-98" d="M978.9,114.4h4.8c1.5,1.5,1.3,3.4,1.3,5.3q.2,51.3,0,102.6c0,1.9.1,3.8-1.3,5.4h-4.8c-1.5-1.6-1.3-3.5-1.3-5.4q-.1-51.3,0-102.6C977.6,117.8,977.4,115.9,978.9,114.4Z" transform="translate(-686 -113.3)"/><path class="cls-99" d="M1079.4,114.4h4.9c1.5,1.5,1.3,3.4,1.3,5.3V222.3c0,1.9.1,3.8-1.3,5.4h-4.9c-1.4-1.6-1.3-3.5-1.3-5.4V119.7C1078.1,117.8,1077.9,115.9,1079.4,114.4Z" transform="translate(-686 -113.3)"/><path class="cls-100" d="M1053.5,114.4h4.8c1.5,1.5,1.3,3.4,1.3,5.3q.2,51.3,0,102.6c0,1.9.2,3.8-1.3,5.4h-4.8c-1.4-1.6-1.3-3.5-1.3-5.4q-.2-51.3,0-102.6C1052.2,117.8,1052,115.9,1053.5,114.4Z" transform="translate(-686 -113.3)"/><path class="cls-101" d="M1005.6,114.4h4.9c1.5,1.5,1.3,3.4,1.3,5.3V222.3c0,1.9.1,3.8-1.3,5.4h-4.9c-1.4-1.6-1.3-3.5-1.3-5.4V119.7C1004.3,117.8,1004.1,115.9,1005.6,114.4Z" transform="translate(-686 -113.3)"/><path class="cls-102" d="M1251.2,240.7c-2.1,1.2-1.4,3.3-1.4,5.1q-.1,40.3-.1,80.6,0,112.1.1,224.1c0,1.9-.9,4.1,1.4,5.5a37.8,37.8,0,0,1-2.4,8.1c-1.2-1.3-.7-2.8-.7-4.3V236.9c0-1.5-.5-3,.7-4.3A29,29,0,0,1,1251.2,240.7Z" transform="translate(-686 -113.3)"/><path class="cls-94" d="M1133.9,675.3a10.8,10.8,0,0,1-5,1.5c-1.9-2.1-1.3-4.6-1.3-7V574.4c0-7.7.2-15.4-.5-23,.3-2.4,1.8-4.2,3.4-5.8s2.1-2,3.2,0,.6,4.5.6,6.8c0,39.6-.1,79.2,0,118.9A13.6,13.6,0,0,1,1133.9,675.3Z" transform="translate(-686 -113.3)"/><path class="cls-103" d="M1128.1,550.3c1.7,16.3.6,32.6.7,48.8.3,25.9.1,51.8.1,77.7a8.1,8.1,0,0,1-4,.9c-1.4-1.3-1.3-2.9-1.3-4.5q-.1-58.1,0-116a19.4,19.4,0,0,1,.2-2.4C1124.3,552.4,1125.2,550.4,1128.1,550.3Z" transform="translate(-686 -113.3)"/><path class="cls-104" d="M1124.8,553.6q0,61.9.1,124.1c-1.2.9-2.7.8-4.1.9s-1.3-2.9-1.3-4.5c0-38-.1-76,0-114,0-.7.2-1.4.2-2C1120.4,555.4,1121.9,553.7,1124.8,553.6Z" transform="translate(-686 -113.3)"/><path class="cls-70" d="M821.6,468q0-45.7-.1-91.4V345.4l4.1-.8c1.3,1.4,1.3,3.2,1.3,4.9v111a14.7,14.7,0,0,1-.4,3.6C825.7,466.4,824.5,468.3,821.6,468Z" transform="translate(-686 -113.3)"/><path class="cls-70" d="M821.5,678.3q.2-61.2.1-122.5c2.9-.4,4,1.5,4.9,3.7a23.7,23.7,0,0,1,.4,5.3V672.6c0,2.2.4,4.6-1.3,6.6A9.5,9.5,0,0,1,821.5,678.3Z" transform="translate(-686 -113.3)"/><path class="cls-105" d="M1120.8,556.9V678.6c-1.2.8-2.6.7-4,.8q-.1-59.9-.1-119.5A3.5,3.5,0,0,1,1120.8,556.9Z" transform="translate(-686 -113.3)"/><path class="cls-106" d="M992.6,227.7V114.4h4.1V227.7Z" transform="translate(-686 -113.3)"/><path class="cls-107" d="M854,114.4V227.7h-4.1c-1.4-1.6-1.3-3.5-1.3-5.4V119.7c0-1.9-.2-3.8,1.3-5.3Z" transform="translate(-686 -113.3)"/><path class="cls-108" d="M1019.4,227.7V114.4h4.1V227.7Z" transform="translate(-686 -113.3)"/><path class="cls-109" d="M978.9,114.4V227.7h-4.1V114.4Z" transform="translate(-686 -113.3)"/><path class="cls-110" d="M983.7,227.7V114.4h4.1V227.7Z" transform="translate(-686 -113.3)"/><path class="cls-111" d="M1005.6,114.4V227.7h-4V114.4Z" transform="translate(-686 -113.3)"/><path class="cls-112" d="M969.1,114.4V227.7h-4V114.4Z" transform="translate(-686 -113.3)"/><path class="cls-113" d="M877.5,114.4V227.7h-4.1V114.4Z" transform="translate(-686 -113.3)"/><path class="cls-114" d="M937.5,227.7V114.4h4.1V227.7Z" transform="translate(-686 -113.3)"/><path class="cls-115" d="M1053.5,114.4V227.7h-4.1c-1.4-1.6-1.3-3.5-1.3-5.4V119.7c0-1.9-.2-3.8,1.3-5.3Z" transform="translate(-686 -113.3)"/><path class="cls-116" d="M1049.4,114.4V227.7h-4c-1.5-1.6-1.3-3.5-1.3-5.4q-.1-51.3,0-102.6c0-1.9-.2-3.8,1.3-5.3Z" transform="translate(-686 -113.3)"/><path class="cls-117" d="M846.7,456.2V342c1.7-.9,3.7-.6,5.5-.6h90.5l2,.2c-1,.8-2.1.4-3.1.6a5.5,5.5,0,0,1-3.2,1H853.6c-1.8.3-2.2,1.7-2.3,3.3a54.2,54.2,0,0,0-.1,5.7v96c0,2.3.2,4.6-.6,6.8S848.4,457.6,846.7,456.2Z" transform="translate(-686 -113.3)"/><path class="cls-118" d="M1133.9,675.3c-1.6-1.4-.9-3.3-.9-4.9-.1-40.1,0-80.2-.1-120.3,0-1.9,0-3.8-.1-5.7s.8-3.5,1.9-4.8,1.8-.8,2.3.5a13.4,13.4,0,0,1,.4,4.4V670a12.9,12.9,0,0,1-.4,4.4A4.4,4.4,0,0,1,1133.9,675.3Z" transform="translate(-686 -113.3)"/><path class="cls-119" d="M1256,530.9c-1-1.4-.6-2.9-.6-4.3V270.2c0-1.5-.4-3,.6-4.3a113.7,113.7,0,0,1,1.2,19.3V511.1A119.7,119.7,0,0,1,1256,530.9Z" transform="translate(-686 -113.3)"/><path class="cls-27" d="M766.5,166.9c-3.9-13.4-8.3-26.7-11.5-40.3-.4-4.1-2.6-8.2,0-12.2h12.2c1.2,1.1,1.2,2.6,1.3,4.1,0,14.7,0,29.3-.1,44C768.4,164.1,768.8,166.1,766.5,166.9Z" transform="translate(-686 -113.3)"/><path class="cls-105" d="M1116.7,236.7q0-57.4.1-114.9c0-1.5-1.1-3.7,1.6-4.3s2.8-.2,4,.8h-.1c-1.6,1.5-1.1,3.5-1.1,5.3V232.8c0,2.1.5,4.4-1.2,6.2Z" transform="translate(-686 -113.3)"/><path class="cls-120" d="M825.6,679.2V558.6c1.9-.5,2.9.4,3.2,2.2V675.6c0,1.5-.1,3,.8,4.3Z" transform="translate(-686 -113.3)"/><path class="cls-120" d="M825.6,465.1V344.6l4-.8c-.9,1.3-.8,2.8-.8,4.3V462.9C828.5,464.7,827.5,465.5,825.6,465.1Z" transform="translate(-686 -113.3)"/><path class="cls-121" d="M1098.1,115.1v114l-3.3-.7v-109C1094.8,117.2,1094.2,114.4,1098.1,115.1Z" transform="translate(-686 -113.3)"/><path class="cls-122" d="M1079.4,114.4V227.7h-3.2V114.4Z" transform="translate(-686 -113.3)"/><path class="cls-123" d="M913.2,227.7V114.4h3.2V227.7Z" transform="translate(-686 -113.3)"/><path class="cls-124" d="M906.7,114.4V227.7h-3.3V114.4Z" transform="translate(-686 -113.3)"/><path class="cls-125" d="M896.9,114.4V227.7h-3.2V114.4Z" transform="translate(-686 -113.3)"/><path class="cls-126" d="M887.2,114.4V227.7H884V114.4Z" transform="translate(-686 -113.3)"/><path class="cls-127" d="M1010.5,227.7V114.4h3.2V227.7Z" transform="translate(-686 -113.3)"/><path class="cls-128" d="M953.7,227.7V114.4H957V227.7Z" transform="translate(-686 -113.3)"/><path class="cls-129" d="M926.1,114.4V227.7h-3.2V114.4Z" transform="translate(-686 -113.3)"/><path class="cls-130" d="M1045.4,114.4V227.7h-3.3c-1.4-1.6-1.3-3.5-1.3-5.4V119.7c0-1.9-.2-3.8,1.3-5.3Z" transform="translate(-686 -113.3)"/><path class="cls-131" d="M849.9,114.4V227.7h-3.2V114.4Z" transform="translate(-686 -113.3)"/><path class="cls-132" d="M1042.1,114.4V227.7h-3.2c-1.4-1.4-1.2-3.2-1.2-5V119.3c0-1.7-.3-3.5,1.2-4.9Z" transform="translate(-686 -113.3)"/><path class="cls-133" d="M1058.3,227.7V114.4h3.3V227.7Z" transform="translate(-686 -113.3)"/><path class="cls-134" d="M1084.3,227.7V114.4h3.2V227.7Z" transform="translate(-686 -113.3)"/><path class="cls-85" d="M1137,674.4c-1.4-1.3-.8-3.1-.8-4.6V539c-.8-2.4.1-4,2.4-4.9q0,67.2.1,134.5c0,1.7-.7,3.5.8,5A2.9,2.9,0,0,1,1137,674.4Z" transform="translate(-686 -113.3)"/><path class="cls-135" d="M1120,239V122.3c0-1.6-1.1-4.1,2.3-3.9q0,61.2.1,122.4Z" transform="translate(-686 -113.3)"/><path class="cls-136" d="M1038.9,114.4V227.7h-2.5V114.4Z" transform="translate(-686 -113.3)"/><path class="cls-35" d="M766.5,166.9c1.1-1.3.7-2.9.7-4.3V114.4h4v68.1A146.8,146.8,0,0,1,766.5,166.9Z" transform="translate(-686 -113.3)"/><path class="cls-137" d="M1019.4,341.5h34.1a1.3,1.3,0,0,1-.7,1,9,9,0,0,1-3.7.6H1024a10.5,10.5,0,0,1-3.9-.5A1.6,1.6,0,0,1,1019.4,341.5Z" transform="translate(-686 -113.3)"/><path class="cls-138" d="M755,114.4v12.2c-1-2.9-1.8-5.8-2.9-8.6S751.5,113.5,755,114.4Z" transform="translate(-686 -113.3)"/><path class="cls-87" d="M1067.3,341.5h30.8a1.3,1.3,0,0,1-.7,1,8.7,8.7,0,0,1-3.2.6H1071a7,7,0,0,1-3.2-.5A.9.9,0,0,1,1067.3,341.5Z" transform="translate(-686 -113.3)"/><path class="cls-130" d="M1098,342a.9.9,0,0,0,.1-.5h26.7a.8.8,0,0,1-.3,1,5.2,5.2,0,0,1-2.4.5H1104c-1.9,0-3.7.3-5.5-.6A1.2,1.2,0,0,0,1098,342Z" transform="translate(-686 -113.3)"/><path class="cls-112" d="M1019.4,341.5v.5l-.4.5c-1.7.8-3.5.6-5.3.6H997a8.6,8.6,0,0,1-3.9-.6l-.5-.5v-.5Z" transform="translate(-686 -113.3)"/><path class="cls-139" d="M1124.8,342v-.5l17.9-.2c-1.2,1.2-2.7.5-4.1.8a4.3,4.3,0,0,1-2.4,1H1128A3.9,3.9,0,0,1,1124.8,342Z" transform="translate(-686 -113.3)"/><path class="cls-127" d="M1067.3,341.5v.5l-1.1.8a17.1,17.1,0,0,1-4.5.3h-3.3a9.8,9.8,0,0,1-4.5-.6l-.5-.5c0-.2.1-.3.1-.5Z" transform="translate(-686 -113.3)"/><path class="cls-1" d="M1138.6,534.1l-2.4,4.9c-1.1,1.8-2.2,3.6-3.4,5.4l-4.7,5.9-3.3,3.3-4,3.3-4.1,3-8.1,4.2-4.8,1.8-5.7,1.6a4.3,4.3,0,0,0-3.3.7l-6,.5c-3.3.8-6.7.6-10,.6H855.3c-1.9,0-3.8.4-5.4-1a8.8,8.8,0,0,0-4.8-.9l-8-2.5-8.3-4.1-3.2-2.2-4-2.8-6.4-6.3-7.8-11.3a58.3,58.3,0,0,1-3.9-43c1.3-3.2,2.6-6.5,4-9.7l7.7-11.3,6.4-6.2,4-2.9,3.2-2.2,7.3-3.5,5.8-2.2,4.8-1,3.2-.7c1.5-1.4,3.3-1.1,5-1.1h275c4.2,0,8.3.9,12.4.7.8,1.6.5,3.2.5,4.8,0,15-.2,30,.1,44.9C1143.1,514.8,1142.3,524.6,1138.6,534.1Z" transform="translate(-686 -113.3)"/><path class="cls-107" d="M849.9,568.3l234.9.2,4,.2-1.3.4a4.6,4.6,0,0,1-3.2,1,40.1,40.1,0,0,1-4.9,0,20.4,20.4,0,0,1-3.5,0h-14.1c-1.1,0-2.3.1-3.4,0a38.4,38.4,0,0,1-4.8,0,28.1,28.1,0,0,1-4.1,0c-1.3,0-2.7.1-4,0s-2.2.1-3.3,0h-3.3a24.3,24.3,0,0,1-2.7,0,50.4,50.4,0,0,1-5.5,0c-2.4.1-4.7.1-7,0a29.4,29.4,0,0,1-4.2,0,52.3,52.3,0,0,1-5.6,0,19.3,19.3,0,0,1-3.4,0,38.4,38.4,0,0,1-4.8,0,28.1,28.1,0,0,1-4.1,0,36.9,36.9,0,0,1-4.7,0c-1.3,0-2.7.1-4,0h-5.3c-1.3.1-2.6,0-4,0a36.9,36.9,0,0,1-4.7,0,29.4,29.4,0,0,1-4.2,0,50.5,50.5,0,0,1-5.5,0h-12a20.4,20.4,0,0,1-3.5,0h-12a29.4,29.4,0,0,1-4.2,0,52.3,52.3,0,0,1-5.6,0,52.3,52.3,0,0,1-5.6,0,20.5,20.5,0,0,1-3.5,0c-2.1.1-4.1.1-6.2,0a20.5,20.5,0,0,1-3.5,0q-3.1.1-6.3,0a19.3,19.3,0,0,1-3.4,0q-3.1.1-6.3,0a20.5,20.5,0,0,1-3.5,0c-2.1.1-4.1.1-6.2,0a20.4,20.4,0,0,1-3.5,0q-3.1.1-6.3,0H860.1c-4.7.7-4.8.7-4.8,6q0,49.2-.1,98.4c0,2.4.5,5-1.2,7h-4.1Z" transform="translate(-686 -113.3)"/><path class="cls-134" d="M1084.3,569.1h3.2V681.6h-3.2c-1.4-1.5-1.3-3.4-1.3-5.3V574.4C1083,572.6,1082.8,570.6,1084.3,569.1Z" transform="translate(-686 -113.3)"/><path class="cls-66" d="M957,569.1h8.1c1.4,1.5,1.3,3.5,1.3,5.4V676.3c0,1.9.1,3.8-1.3,5.3H957c-1.5-1.5-1.3-3.4-1.3-5.3q-.2-51,0-101.8C955.7,572.6,955.5,570.6,957,569.1Z" transform="translate(-686 -113.3)"/><path class="cls-89" d="M969.1,569.1h5.7c1.5,1.5,1.3,3.5,1.3,5.4V676.3c0,1.9.1,3.8-1.3,5.3h-5.7c-1.4-1.5-1.3-3.4-1.3-5.3V574.5C967.8,572.6,967.7,570.6,969.1,569.1Z" transform="translate(-686 -113.3)"/><path class="cls-98" d="M978.9,569.1h4.8c1.5,1.5,1.3,3.5,1.3,5.4q.2,50.8,0,101.8c0,1.9.2,3.8-1.3,5.3h-4.8c-1.5-1.5-1.3-3.4-1.3-5.3q-.1-51,0-101.8C977.6,572.6,977.4,570.6,978.9,569.1Z" transform="translate(-686 -113.3)"/><path class="cls-112" d="M969.1,569.1V681.6h-4V569.1Z" transform="translate(-686 -113.3)"/><path class="cls-109" d="M978.9,569.1V681.6h-4.1V569.1Z" transform="translate(-686 -113.3)"/><path class="cls-128" d="M957,569.1V681.6h-3.3c-1.4-1.5-1.3-3.4-1.3-5.3V574.5c0-1.9-.2-3.9,1.3-5.4Z" transform="translate(-686 -113.3)"/><path class="cls-71" d="M1023.5,569.1h7.3c1.4,1.5,1.3,3.5,1.3,5.3V676.3c0,1.9.1,3.8-1.4,5.3h-7.2c-1.5-1.5-1.3-3.4-1.3-5.3q-.2-51,0-101.8C1022.2,572.6,1022,570.6,1023.5,569.1Z" transform="translate(-686 -113.3)"/><path class="cls-88" d="M1013.7,569.1h5.7c1.5,1.5,1.3,3.5,1.3,5.4V676.3c0,1.9.1,3.8-1.3,5.3h-5.7c-1.4-1.5-1.3-3.4-1.3-5.3V574.5C1012.4,572.6,1012.3,570.6,1013.7,569.1Z" transform="translate(-686 -113.3)"/><path class="cls-101" d="M1005.6,569.1h4.9c1.5,1.5,1.3,3.5,1.3,5.4V676.3c0,1.9.1,3.8-1.3,5.3h-4.9c-1.4-1.5-1.3-3.4-1.3-5.3V574.5C1004.3,572.6,1004.2,570.6,1005.6,569.1Z" transform="translate(-686 -113.3)"/><path class="cls-108" d="M1019.4,681.6V569.1h4.1V681.6Z" transform="translate(-686 -113.3)"/><path class="cls-111" d="M1005.6,569.1V681.6h-4c-1.5-1.5-1.3-3.4-1.3-5.3q-.1-51,0-101.8c0-1.9-.2-3.9,1.3-5.4Z" transform="translate(-686 -113.3)"/><path class="cls-127" d="M1010.5,681.6V569.1h3.2V681.6Z" transform="translate(-686 -113.3)"/><path class="cls-59" d="M1067.3,569.1h8.9c1.4,1.5,1.3,3.5,1.3,5.3V676.3c0,1.9.1,3.8-1.3,5.3h-8.9c-1.5-1.5-1.3-3.4-1.3-5.3-.1-34-.1-67.9,0-101.9C1066,572.6,1065.8,570.6,1067.3,569.1Z" transform="translate(-686 -113.3)"/><path class="cls-91" d="M1067.3,569.1V681.6h-5.7c-1.4-1.5-1.3-3.4-1.3-5.3-.1-34-.1-67.9,0-101.9,0-1.8-.2-3.8,1.3-5.3Z" transform="translate(-686 -113.3)"/><path class="cls-100" d="M1053.5,569.1h4.8c1.5,1.5,1.3,3.5,1.3,5.3.1,34,.1,67.9,0,101.9,0,1.9.2,3.8-1.3,5.3h-4.8c-1.4-1.5-1.3-3.4-1.3-5.3-.1-34-.1-67.9,0-101.9C1052.2,572.6,1052,570.6,1053.5,569.1Z" transform="translate(-686 -113.3)"/><path class="cls-133" d="M1058.3,681.6V569.1h3.3V681.6Z" transform="translate(-686 -113.3)"/><path class="cls-122" d="M1076.2,681.6V569.1h3.2c1.5,1.5,1.3,3.5,1.3,5.3.1,34,.1,67.9,0,101.9,0,1.9.2,3.8-1.3,5.3h-3.2Z" transform="translate(-686 -113.3)"/><path class="cls-80" d="M854,681.6V575c0-6.2,0-6.2,6.5-5.9,1.4,1.5,1.3,3.5,1.3,5.4V676.3c0,1.9.1,3.8-1.3,5.3Z" transform="translate(-686 -113.3)"/><path class="cls-77" d="M866.9,569.1h6.5c1.5,1.5,1.3,3.5,1.3,5.4q.1,50.8,0,101.8c0,1.9.1,3.8-1.3,5.3h-6.5c-1.4-1.5-1.3-3.4-1.3-5.3V574.5C865.6,572.6,865.5,570.6,866.9,569.1Z" transform="translate(-686 -113.3)"/><path class="cls-76" d="M866.9,569.1V681.6h-6.4V569.1Z" transform="translate(-686 -113.3)"/><path class="cls-72" d="M941.6,569.1H948c1.5,1.5,1.3,3.5,1.3,5.4q.2,50.8,0,101.8c0,1.9.2,3.8-1.3,5.3h-6.4c-1.5-1.5-1.3-3.4-1.4-5.3q0-51,.1-101.8C940.3,572.6,940.1,570.6,941.6,569.1Z" transform="translate(-686 -113.3)"/><path class="cls-93" d="M926.1,569.1h5.7c1.5,1.6,1.3,3.5,1.3,5.4q.1,50.8,0,101.8c0,1.9.1,3.8-1.3,5.3h-5.7c-1.4-1.5-1.3-3.4-1.3-5.3V574.5C924.8,572.6,924.7,570.6,926.1,569.1Z" transform="translate(-686 -113.3)"/><path class="cls-92" d="M931.8,681.6V569.1h5.7c1.5,1.5,1.3,3.5,1.3,5.4V676.3c0,1.9.1,3.8-1.3,5.3Z" transform="translate(-686 -113.3)"/><path class="cls-90" d="M948,681.6V569.1h5.7V681.6Z" transform="translate(-686 -113.3)"/><path class="cls-114" d="M937.5,681.6V569.1h4.1V681.6Z" transform="translate(-686 -113.3)"/><path class="cls-96" d="M1001.6,569.1V681.6h-4.9c-1.4-1.5-1.3-3.4-1.3-5.3V574.5c0-1.9-.2-3.9,1.3-5.4Z" transform="translate(-686 -113.3)"/><path class="cls-106" d="M996.7,569.1V681.6h-4.1c-1.3-1.4-1.2-3.2-1.2-4.9V574.1c0-1.8-.2-3.6,1.2-5Z" transform="translate(-686 -113.3)"/><path class="cls-110" d="M983.7,681.6V569.1h4.1c1.4,1.4,1.2,3.2,1.2,5V676.7c0,1.7.1,3.5-1.2,4.9Z" transform="translate(-686 -113.3)"/><path class="cls-137" d="M987.8,681.6V569.1h2.4c1.4,1.4,1.2,3.2,1.2,5V676.7c0,1.7.2,3.5-1.2,4.9Z" transform="translate(-686 -113.3)"/><path class="cls-97" d="M990.2,681.6V569.1h2.4V681.6Z" transform="translate(-686 -113.3)"/><path class="cls-83" d="M906.7,569.1h6.5c1.4,1.5,1.3,3.5,1.3,5.4V676.3c0,1.9.1,3.8-1.3,5.3h-6.5c-1.4-1.5-1.3-3.4-1.3-5.3q-.1-51,0-101.8C905.4,572.6,905.2,570.6,906.7,569.1Z" transform="translate(-686 -113.3)"/><path class="cls-79" d="M887.2,569.1h6.5c1.5,1.5,1.3,3.5,1.3,5.4V676.3c0,1.9.1,3.8-1.3,5.3h-6.5c-1.4-1.5-1.3-3.4-1.3-5.3V574.5C885.9,572.6,885.7,570.6,887.2,569.1Z" transform="translate(-686 -113.3)"/><path class="cls-81" d="M896.9,569.1h6.5c1.5,1.5,1.3,3.5,1.3,5.4q.1,50.8,0,101.8c0,1.9.2,3.8-1.3,5.3h-6.5c-1.4-1.5-1.3-3.4-1.3-5.3V574.5C895.6,572.6,895.5,570.6,896.9,569.1Z" transform="translate(-686 -113.3)"/><path class="cls-125" d="M896.9,569.1V681.6h-3.2V569.1Z" transform="translate(-686 -113.3)"/><path class="cls-124" d="M903.4,681.6V569.1h3.3V681.6Z" transform="translate(-686 -113.3)"/><path class="cls-87" d="M1030.7,681.6q.1-56.2.1-112.5h5.6c1.4,1.4,1.2,3.2,1.2,4.9q.2,51.4,0,102.7c0,1.7.2,3.5-1.2,4.9Z" transform="translate(-686 -113.3)"/><path class="cls-115" d="M1053.5,569.1V681.6h-4.1c-1.4-1.5-1.3-3.4-1.3-5.3V574.4c0-1.8-.1-3.8,1.3-5.3Z" transform="translate(-686 -113.3)"/><path class="cls-116" d="M1049.4,569.1V681.6h-4c-1.5-1.5-1.3-3.4-1.3-5.3-.1-34-.1-67.9,0-101.9,0-1.8-.2-3.8,1.3-5.3Z" transform="translate(-686 -113.3)"/><path class="cls-132" d="M1038.9,569.1h3.2c1.5,1.5,1.3,3.5,1.3,5.3.1,34,.1,67.9,0,101.9,0,1.9.1,3.8-1.3,5.3h-3.2c-1.4-1.4-1.2-3.2-1.2-4.9V574C1037.7,572.3,1037.5,570.5,1038.9,569.1Z" transform="translate(-686 -113.3)"/><path class="cls-130" d="M1042.1,681.6V569.1h3.3V681.6Z" transform="translate(-686 -113.3)"/><path class="cls-136" d="M1038.9,569.1V681.6h-2.5V569.1Z" transform="translate(-686 -113.3)"/><path class="cls-78" d="M877.5,569.1H884c1.4,1.5,1.3,3.5,1.3,5.4V676.3c0,1.9.1,3.8-1.3,5.3h-6.5c-1.4-1.5-1.3-3.4-1.3-5.3q-.2-51,0-101.8C876.2,572.6,876,570.6,877.5,569.1Z" transform="translate(-686 -113.3)"/><path class="cls-113" d="M877.5,569.1V681.6h-4.1V569.1Z" transform="translate(-686 -113.3)"/><path class="cls-126" d="M884,681.6V569.1h3.2V681.6Z" transform="translate(-686 -113.3)"/><path class="cls-82" d="M916.4,569.1h6.5c1.5,1.5,1.3,3.5,1.3,5.4V676.3c0,1.9.1,3.8-1.3,5.3h-6.5c-1.4-1.5-1.3-3.4-1.3-5.3V574.5C915.1,572.6,914.9,570.6,916.4,569.1Z" transform="translate(-686 -113.3)"/><path class="cls-123" d="M916.4,569.1V681.6h-3.2V569.1Z" transform="translate(-686 -113.3)"/><path class="cls-129" d="M922.9,681.6V569.1h3.2V681.6Z" transform="translate(-686 -113.3)"/><path class="cls-99" d="M1079.4,681.6V569.1h4.9V681.6Z" transform="translate(-686 -113.3)"/><path class="cls-107" d="M1142.3,455l-4.4.2H860.8l-10.9.3V346.4c-.1-3.1.4-5,4.1-4.3,1.7,2,1.2,4.6,1.2,6.9q.1,47.7.1,95.4c0,1.4.1,2.7,0,4.1-.3,3.3,1,5.1,4.5,5,1.2.1,2.5-.1,3.7.1a41.7,41.7,0,0,1,5,0,40,40,0,0,1,4.9,0,28.1,28.1,0,0,1,4.1,0q3.2-.2,6.3,0a20.5,20.5,0,0,1,3.5,0c2.1-.1,4.2-.1,6.2,0a20.4,20.4,0,0,1,3.5,0q3.2-.2,6.3,0a20.4,20.4,0,0,1,3.5,0c2-.1,4.1-.1,6.2,0a20.5,20.5,0,0,1,3.5,0c2-.1,4.1-.1,6.2,0s2.2-.1,3.4,0,2.2,0,3.4,0a48.6,48.6,0,0,1,5.4,0c1.1,0,2.3-.1,3.4,0a5,5,0,0,1,3.3,1H948c1.7-1.3,3.7-1,5.6-1a20.5,20.5,0,0,1,3.5,0q3.9-.2,7.8,0a29.4,29.4,0,0,1,4.2,0,52.3,52.3,0,0,1,5.6,0,28,28,0,0,1,4.1,0,36.8,36.8,0,0,1,4.7,0h13.3a36.9,36.9,0,0,1,4.7,0,28.1,28.1,0,0,1,4.1,0,38.4,38.4,0,0,1,4.8,0,19.3,19.3,0,0,1,3.4,0,52.3,52.3,0,0,1,5.6,0,29.4,29.4,0,0,1,4.2,0c2.3-.1,4.6-.1,7,0a50.4,50.4,0,0,1,5.5,0,24.3,24.3,0,0,1,2.7,0h6.6c1.4-.1,2.7,0,4,0a28.1,28.1,0,0,1,4.1,0,36.9,36.9,0,0,1,4.7,0c1.2,0,2.3-.1,3.4,0a38.4,38.4,0,0,1,4.8,0,28,28,0,0,1,4.1,0,50.4,50.4,0,0,1,5.5,0c1.2,0,2.3-.1,3.4,0a38.4,38.4,0,0,1,4.8,0,20.5,20.5,0,0,1,3.5,0q3.5-.2,6.9,0a20.4,20.4,0,0,1,3.5,0,52.3,52.3,0,0,1,5.6,0,41.7,41.7,0,0,1,5,0c2.5-.1,5.1-.1,7.7,0,1.1,0,2.3-.1,3.4,0h2.8a48.6,48.6,0,0,1,5.4,0c1.6,0,3.2-.1,4.7,0a19,19,0,0,1,3.4.1,3.7,3.7,0,0,1,2.5,1Z" transform="translate(-686 -113.3)"/><path class="cls-85" d="M1138.6,454.7h-2.4c-1.4-1.5-1.3-3.4-1.3-5.3V347.4c0-1.8-.1-3.8,1.3-5.3h2.4Z" transform="translate(-686 -113.3)"/><path class="cls-66" d="M965.1,454.6H957c-1.5-1.5-1.3-3.5-1.3-5.4q-.2-50.8,0-101.8c0-1.8-.2-3.8,1.3-5.3h8.1c1.4,1.5,1.3,3.5,1.3,5.3V449.2C966.4,451.1,966.5,453.1,965.1,454.6Z" transform="translate(-686 -113.3)"/><path class="cls-90" d="M953.7,454.6H948v-107c0-5.6,0-5.6,5.7-5.5,1.4,1.5,1.3,3.5,1.3,5.3q.2,51,0,101.8C955,451.1,955.2,453.1,953.7,454.6Z" transform="translate(-686 -113.3)"/><path class="cls-89" d="M974.8,454.6h-5.7c-1.4-1.5-1.3-3.5-1.3-5.4V347.4c0-1.8-.1-3.8,1.3-5.3h5.7c1.4,1.5,1.3,3.5,1.3,5.3V449.3C976.1,451.1,976.3,453.1,974.8,454.6Z" transform="translate(-686 -113.3)"/><path class="cls-98" d="M983.7,454.6h-4.8c-1.5-1.5-1.3-3.5-1.3-5.3-.1-34-.1-67.9,0-101.9,0-1.8-.2-3.8,1.3-5.3h4.8c1.4,1.5,1.3,3.5,1.3,5.3.1,34,.1,67.9,0,101.9C985,451.1,985.2,453.1,983.7,454.6Z" transform="translate(-686 -113.3)"/><path class="cls-109" d="M978.9,342.1V454.6h-4.1V342.1Z" transform="translate(-686 -113.3)"/><path class="cls-110" d="M983.7,454.6V342.1h4.1c1.3,1.4,1.2,3.2,1.2,4.9V449.7c0,1.7.2,3.5-1.2,4.9Z" transform="translate(-686 -113.3)"/><path class="cls-112" d="M969.1,342.1V454.6h-4V342.1Z" transform="translate(-686 -113.3)"/><path class="cls-114" d="M941.6,454.6h-3.3c-1.5-1.5-1.3-3.5-1.3-5.4V347.4c0-1.9-.1-3.8,1.3-5.3h3.3Z" transform="translate(-686 -113.3)"/><path class="cls-128" d="M953.7,454.6V342.1H957V454.6Z" transform="translate(-686 -113.3)"/><path class="cls-137" d="M987.8,454.6V342.1h2.4c1.4,1.4,1.2,3.2,1.2,4.9V449.6c0,1.8.2,3.6-1.2,5Z" transform="translate(-686 -113.3)"/><path class="cls-97" d="M990.2,454.6V342.1h2.5c1.4,1.5,1.3,3.5,1.3,5.3V449.3c-.1,1.8.1,3.8-1.4,5.3Z" transform="translate(-686 -113.3)"/><path class="cls-80" d="M860.5,454.6h-2.1c-3.5.6-4.5-.8-4.5-4.4q.1-54.2.1-108.2h6.5c1.4,1.5,1.3,3.4,1.3,5.3V449.2C861.8,451.1,861.9,453.1,860.5,454.6Z" transform="translate(-686 -113.3)"/><path class="cls-78" d="M884,454.6h-6.5c-1.5-1.5-1.3-3.5-1.3-5.4q-.2-50.8,0-101.8c0-1.9-.1-3.8,1.3-5.3H884c1.4,1.5,1.3,3.4,1.3,5.3V449.2C885.3,451.1,885.4,453.1,884,454.6Z" transform="translate(-686 -113.3)"/><path class="cls-79" d="M893.7,454.6h-6.5c-1.5-1.5-1.3-3.5-1.3-5.4V347.4c0-1.9-.1-3.8,1.3-5.3h6.5c1.4,1.5,1.3,3.4,1.3,5.3V449.2C895,451.1,895.2,453.1,893.7,454.6Z" transform="translate(-686 -113.3)"/><path class="cls-81" d="M903.4,454.6h-6.5c-1.4-1.5-1.3-3.5-1.3-5.4V347.4c0-1.9-.1-3.8,1.3-5.3h6.5c1.5,1.5,1.3,3.4,1.3,5.3q.1,51,0,101.8C904.7,451.1,904.9,453.1,903.4,454.6Z" transform="translate(-686 -113.3)"/><path class="cls-83" d="M913.2,454.6h-6.5c-1.5-1.5-1.3-3.5-1.3-5.4q-.1-50.8,0-101.8c0-1.9-.1-3.8,1.3-5.3h6.5c1.4,1.5,1.3,3.4,1.3,5.3V449.2C914.5,451.1,914.6,453.1,913.2,454.6Z" transform="translate(-686 -113.3)"/><path class="cls-82" d="M922.9,454.6h-6.5c-1.5-1.5-1.3-3.5-1.3-5.4V347.4c0-1.9-.1-3.8,1.3-5.3h6.5c1.4,1.5,1.3,3.4,1.3,5.3V449.2C924.2,451.1,924.4,453.1,922.9,454.6Z" transform="translate(-686 -113.3)"/><path class="cls-140" d="M935.1,454.6h-5.7c-1.5-1.5-1.3-3.5-1.3-5.4V347.4c0-1.9-.1-3.8,1.3-5.3h5.7c1.4,1.5,1.3,3.4,1.3,5.3V449.2C936.4,451.1,936.5,453.1,935.1,454.6Z" transform="translate(-686 -113.3)"/><path class="cls-141" d="M868.6,454.6h-4.9c-1.5-1.5-1.3-3.5-1.3-5.4V347.4c0-1.9-.1-3.8,1.3-5.3h4.9c1.4,1.5,1.3,3.4,1.3,5.3V449.2C869.9,451.1,870,453.1,868.6,454.6Z" transform="translate(-686 -113.3)"/><path class="cls-77" d="M868.6,454.6V342.1h4.8c1.4,1.5,1.3,3.4,1.3,5.3q.1,51,0,101.8c0,1.9.2,3.9-1.3,5.4Z" transform="translate(-686 -113.3)"/><path class="cls-113" d="M873.4,454.6V342.1h4.1V454.6Z" transform="translate(-686 -113.3)"/><path class="cls-92" d="M935.1,454.6V342.1h3.2V454.6Z" transform="translate(-686 -113.3)"/><path class="cls-142" d="M929.4,342.1V454.6h-3.3c-1.4-1.5-1.3-3.5-1.3-5.4V347.4c0-1.9-.1-3.8,1.3-5.3Z" transform="translate(-686 -113.3)"/><path class="cls-129" d="M926.1,342.1V454.6h-3.2V342.1Z" transform="translate(-686 -113.3)"/><path class="cls-143" d="M916.4,342.1V454.6h-3.2V342.1Z" transform="translate(-686 -113.3)"/><path class="cls-124" d="M906.7,342.1V454.6h-3.3V342.1Z" transform="translate(-686 -113.3)"/><path class="cls-125" d="M896.9,342.1V454.6h-3.2V342.1Z" transform="translate(-686 -113.3)"/><path class="cls-126" d="M887.2,342.1V454.6H884V342.1Z" transform="translate(-686 -113.3)"/><path class="cls-76" d="M863.7,342.1V454.6h-3.2V342.1Z" transform="translate(-686 -113.3)"/><path class="cls-71" d="M1030.8,454.6h-7.3c-1.5-1.5-1.3-3.5-1.3-5.3-.1-34-.1-67.9,0-101.9,0-1.8-.2-3.8,1.3-5.3h7.3c1.4,1.5,1.3,3.5,1.3,5.3V449.3C1032.1,451.1,1032.2,453.1,1030.8,454.6Z" transform="translate(-686 -113.3)"/><path class="cls-87" d="M1030.8,454.6V342.1h5.6c1.4,1.4,1.2,3.2,1.2,4.9.1,34.2.1,68.5,0,102.7,0,1.7.2,3.5-1.2,4.9Z" transform="translate(-686 -113.3)"/><path class="cls-108" d="M1023.5,342.1V454.6h-4.1c-1.5-1.5-1.3-3.5-1.3-5.3V347.4c0-1.8-.1-3.8,1.3-5.3h4.1Z" transform="translate(-686 -113.3)"/><path class="cls-115" d="M1053.5,454.6h-4.1c-1.4-1.5-1.3-3.5-1.3-5.3V347.4c0-1.8-.1-3.8,1.3-5.3h4.1c1.4,1.5,1.3,3.5,1.3,5.3V449.3C1054.8,451.1,1054.9,453.1,1053.5,454.6Z" transform="translate(-686 -113.3)"/><path class="cls-116" d="M1049.4,342.1V454.6h-4c-1.5-1.5-1.3-3.5-1.3-5.3-.1-34-.1-67.9,0-101.9,0-1.8-.2-3.8,1.3-5.3Z" transform="translate(-686 -113.3)"/><path class="cls-132" d="M1042.1,454.6h-3.2c-1.4-1.4-1.2-3.2-1.2-4.9V347c0-1.7-.2-3.5,1.2-4.9h3.2c1.4,1.5,1.3,3.5,1.3,5.3.1,34,.1,67.9,0,101.9C1043.4,451.1,1043.6,453.1,1042.1,454.6Z" transform="translate(-686 -113.3)"/><path class="cls-130" d="M1042.1,454.6V342.1h3.3V454.6Z" transform="translate(-686 -113.3)"/><path class="cls-136" d="M1038.9,342.1V454.6h-2.5V342.1Z" transform="translate(-686 -113.3)"/><path class="cls-3" d="M1094.8,454.6h-7.3c-1.4-1.5-1.3-3.5-1.3-5.3V347.4c0-1.8-.1-3.8,1.3-5.3h7.3c1.5,1.5,1.3,3.5,1.3,5.3.1,34,.1,67.9,0,101.9C1096.1,451.2,1096.3,453.1,1094.8,454.6Z" transform="translate(-686 -113.3)"/><path class="cls-59" d="M1076.2,454.6h-5.7c-1.4-1.5-1.3-3.5-1.3-5.3V347.4c0-1.8-.1-3.8,1.3-5.3h5.7c1.4,1.5,1.3,3.5,1.3,5.3V449.3C1077.5,451.1,1077.6,453.1,1076.2,454.6Z" transform="translate(-686 -113.3)"/><path class="cls-99" d="M1084.3,454.6h-4.9c-1.4-1.5-1.3-3.5-1.3-5.3V347.4c0-1.8-.1-3.8,1.3-5.3h4.9c1.4,1.5,1.3,3.5,1.3,5.3V449.3C1085.6,451.1,1085.7,453.1,1084.3,454.6Z" transform="translate(-686 -113.3)"/><path class="cls-139" d="M1070.5,342.1V454.6h-4.1c-1.4-1.5-1.3-3.5-1.3-5.3V347.4c0-1.8-.1-3.8,1.3-5.3h4.1Z" transform="translate(-686 -113.3)"/><path class="cls-122" d="M1079.4,342.1V454.6h-3.2V342.1Z" transform="translate(-686 -113.3)"/><path class="cls-134" d="M1084.3,454.6V342.1h3.2V454.6Z" transform="translate(-686 -113.3)"/><path class="cls-6" d="M1094.8,454.6V342.1h3.3c1.4,1.5,1.3,3.5,1.3,5.3V449.3c0,1.9.1,3.8-1.3,5.3Z" transform="translate(-686 -113.3)"/><path class="cls-63" d="M1116.7,454.6h-8.1c-1.4-1.5-1.3-3.4-1.3-5.3V347.4c0-1.8-.1-3.8,1.3-5.3h8.1c1.5,1.5,1.3,3.5,1.3,5.3.1,34,.1,67.9,0,101.9C1118,451.2,1118.2,453.1,1116.7,454.6Z" transform="translate(-686 -113.3)"/><path class="cls-84" d="M1128.1,454.6h-5.7c-1.4-1.4-1.2-3.2-1.2-4.9V347c0-1.7-.2-3.5,1.2-4.9h5.7c1.4,1.5,1.3,3.5,1.3,5.3V449.3C1129.4,451.2,1129.5,453.1,1128.1,454.6Z" transform="translate(-686 -113.3)"/><path class="cls-5" d="M1098.1,454.6V342.1h5.7c1.4,1.5,1.3,3.5,1.3,5.3V449.3c0,1.9.1,3.8-1.3,5.3Z" transform="translate(-686 -113.3)"/><path class="cls-95" d="M1103.8,454.6V342.1h4.8V454.6Z" transform="translate(-686 -113.3)"/><path class="cls-105" d="M1116.7,454.6V342.1h3.3c1.3,1.4,1.2,3.2,1.2,4.9V449.7c0,1.7.1,3.5-1.2,4.9Z" transform="translate(-686 -113.3)"/><path class="cls-135" d="M1120,454.6V342.1h2.4V454.6Z" transform="translate(-686 -113.3)"/><path class="cls-88" d="M1019.4,342.1V454.6h-5.7c-1.4-1.5-1.3-3.5-1.3-5.3V347.4c0-1.8-.1-3.8,1.3-5.3Z" transform="translate(-686 -113.3)"/><path class="cls-96" d="M1001.6,454.6h-4.9c-1.5-1.5-1.3-3.5-1.3-5.3V347.4c0-1.8-.1-3.8,1.3-5.3h4.9c1.4,1.5,1.3,3.5,1.3,5.3V449.3C1002.9,451.1,1003,453.1,1001.6,454.6Z" transform="translate(-686 -113.3)"/><path class="cls-101" d="M1010.5,454.6h-4.9c-1.4-1.5-1.3-3.5-1.3-5.3V347.4c0-1.8-.1-3.8,1.3-5.3h4.9c1.4,1.5,1.3,3.5,1.3,5.3V449.3C1011.8,451.1,1012,453.1,1010.5,454.6Z" transform="translate(-686 -113.3)"/><path class="cls-106" d="M996.7,342.1V454.6h-4.1q.1-56.2.1-112.5Z" transform="translate(-686 -113.3)"/><path class="cls-111" d="M1005.6,342.1V454.6h-4V342.1Z" transform="translate(-686 -113.3)"/><path class="cls-127" d="M1010.5,454.6V342.1h3.2V454.6Z" transform="translate(-686 -113.3)"/><path class="cls-94" d="M1128.1,454.6V342.1h4.9c1.4,1.5,1.3,3.5,1.3,5.3V449.3c0,1.9.1,3.8-1.4,5.3Z" transform="translate(-686 -113.3)"/><path class="cls-118" d="M1132.9,454.6V342.1h3.2V454.6Z" transform="translate(-686 -113.3)"/><path class="cls-100" d="M1053.5,454.6V342.1h4.8c1.5,1.5,1.3,3.5,1.3,5.3.1,34,.1,67.9,0,101.9,0,1.8.2,3.8-1.3,5.3Z" transform="translate(-686 -113.3)"/><path class="cls-91" d="M1066.4,342.1V454.6h-4.8c-1.5-1.5-1.3-3.5-1.3-5.3-.1-34-.1-67.9,0-101.9,0-1.8-.1-3.8,1.3-5.3Z" transform="translate(-686 -113.3)"/><path class="cls-133" d="M1061.6,342.1V454.6h-3.3V342.1Z" transform="translate(-686 -113.3)"/></svg>