<svg id="Layer_1" data-name="Layer 1" xmlns="http://www.w3.org/2000/svg" viewBox="0 0 573.8 640.7"><defs><style>.cls-1{fill:#fb334b;stroke:#ed1c24;stroke-miterlimit:10;stroke-width:3px;}.cls-2{fill:#754c24;}</style></defs><g id="Perishable_Food" data-name="Perishable Food"><path class="cls-1" d="M1188.5,285.9S995.4,181.1,954,339.8s-22.5,256,24.6,409.8S1155,788.9,1155,788.9s50.8-42.4,125.6,0,143.9,48.7,156.5-26.7c28.3-72.2,85.8-348.6,57.1-406.6-29.4-59.7-123-114-209.4-32.7C1240.8,322.3,1188,286.9,1188.5,285.9Z" transform="translate(-929.7 -190.7)"/><path class="cls-2" d="M1260.6,362.5c26.8-45.7,66.3-85.1,115.2-106.8a188.1,188.1,0,0,1,39.3-12.8c1.3-.3,3.2-7.5,3.2-7.4,2-6,3.8-12.2,5.4-18.3s3.3-12.3,4.5-18.6c.1-.7,1.3-8,.9-7.9-51.1,10.8-95.8,42.5-128.7,82.3a299.1,299.1,0,0,0-27.2,39c-1.9,3.3-3.1,8.2-4.1,11.7-2.1,6.6-3.9,13.4-5.6,20.1a138.6,138.6,0,0,0-3.4,15.8c-.1.5-.9,5.3.5,2.9Z" transform="translate(-929.7 -190.7)"/></g></svg>