<svg id="Layer_1" data-name="Layer 1" xmlns="http://www.w3.org/2000/svg" viewBox="0 0 658.8 877.2"><defs><style>.cls-1{fill:#999;}.cls-1,.cls-2{stroke:#000;stroke-miterlimit:10;}.cls-2{fill:#666;}.cls-3{fill:#4d4d4d;}.cls-4{fill:#fb334b;}</style></defs><g id="Non_Perishables" data-name="Non&apos;Perishables"><path class="cls-1" d="M917.2,204.2s-1.4,737.8,0,738.9c150.1,110.3,532.9,101.3,652.8,0-8.1-263,0-738.9,0-738.9C1405.8,303.9,1057.2,303.9,917.2,204.2Z" transform="translate(-913.2 -145.8)"/><path class="cls-2" d="M917.2,204.2c-2.8,1.1,279.1,160.2,652.8,0C1519.6,161.9,1196.3,98.4,917.2,204.2Z" transform="translate(-913.2 -145.8)"/><path class="cls-3" d="M927.1,419.8c40.8,15.1,83.3,24.4,126,31.4s87.6,12.7,131.5,17.5,86.2,6.8,129.4,3.2a586.9,586.9,0,0,0,119.6-22.5,576.8,576.8,0,0,0,112.8-47l13.1-7.4a1.5,1.5,0,0,0-1.5-2.6,575.2,575.2,0,0,1-111.3,49.8,587.2,587.2,0,0,1-119.3,25.5c-42.2,4.4-84.5,3.7-126.7-.3-44.1-4.2-88.2-10.1-132-16.8s-84.8-14.7-125.6-28.4c-5.1-1.7-10.1-3.4-15.2-5.3-1.8-.7-2.6,2.2-.8,2.9Z" transform="translate(-913.2 -145.8)"/><path class="cls-3" d="M924.5,544c40.4,19.1,85.4,24.6,129.1,30.9,47.3,6.8,94.6,13.2,142.2,16.4s92.9,3.1,138.9-2.7c39.7-5,78.9-14.4,116.1-29.1s71.3-34.3,101.2-60c3.7-3.2,7.3-6.5,10.9-9.8,1.4-1.3-.7-3.4-2.1-2.1-28.8,27-62.5,48.2-98.6,64s-74.8,26.1-113.8,32.1c-44.7,6.8-90.1,7.8-135.1,5.6-47.4-2.3-94.5-8.2-141.4-14.8-43.7-6.1-88.9-10.6-130.3-26.5q-8-3-15.6-6.6c-1.7-.9-3.2,1.7-1.5,2.6Z" transform="translate(-913.2 -145.8)"/><path class="cls-3" d="M919.5,652c44.4,8.1,88.8,16.2,133.4,22.9s88.8,12.2,133.5,14.9c42.3,2.6,84.8,2.9,127.1-.4A679.6,679.6,0,0,0,1432,670c38.7-10.1,76.5-24.1,112-42.6l13.3-7.2a1.5,1.5,0,0,0-1.5-2.6,515.1,515.1,0,0,1-111.1,45.8,659.2,659.2,0,0,1-118.3,21.9,866.9,866.9,0,0,1-123.8,2.4c-44.8-2.1-89.5-7-134-13.5s-87.9-14.1-131.7-22.1l-16.6-3c-1.9-.4-2.7,2.5-.8,2.9Z" transform="translate(-913.2 -145.8)"/><path class="cls-3" d="M917.1,773.9q64.2,10.1,128.8,17t130.9,10.8c43.4,2.5,86.9,4.2,130.3,4.3,21.5,0,43-.7,64.3-3.3a340.3,340.3,0,0,0,59.9-13c38.5-12,75-29.7,110.9-47.9l13.5-6.9c1.7-.9.2-3.5-1.5-2.6-36,18.3-72.2,36.8-110.4,50.1a352.1,352.1,0,0,1-58.1,15.2c-21.3,3.6-42.8,5-64.3,5.3-43,.7-86-1.1-128.9-3.4s-86.2-5.5-129.1-9.8S977,779.9,934,773.5L917.9,771c-1.9-.3-2.7,2.6-.8,2.9Z" transform="translate(-913.2 -145.8)"/><path class="cls-3" d="M918.6,857q70.5,15.2,141.9,24.9c44.7,6.1,89.6,10.8,134.6,13.2,40.9,2.1,81.9,2.3,122.8-.9s79.9-9.5,118.6-20.4,75.2-26.4,109.1-47.3c4.3-2.6,8.6-5.4,12.8-8.2,1.6-1.1.1-3.7-1.5-2.6a420.7,420.7,0,0,1-107.7,51.1c-38.3,12.1-78.1,19.4-118.1,23.2s-81.1,4.4-121.6,2.7c-43.9-1.7-87.6-6-131.2-11.5q-71.2-9-141.7-23.5l-17.2-3.6c-1.9-.4-2.7,2.5-.8,2.9Z" transform="translate(-913.2 -145.8)"/><path class="cls-3" d="M919.2,332c44.7,9.2,89.4,18.5,134.4,26.4s89,14.4,134,18.4c42.8,3.7,85.9,5.1,128.9,2.9,41.1-2.1,82.2-7.3,122.3-16.6s78.5-22.5,115.1-40.4c4.6-2.2,9.2-4.6,13.8-7,1.7-.9.2-3.5-1.5-2.6a525.7,525.7,0,0,1-114.3,43.7,675.4,675.4,0,0,1-121.5,19.1,888.7,888.7,0,0,1-126.4-.8c-45.2-3.3-90-9.4-134.6-17s-88.6-16.4-132.7-25.6L920,329.1c-1.9-.4-2.7,2.5-.8,2.9Z" transform="translate(-913.2 -145.8)"/></g><path class="cls-4" d="M1566,784.4c-296.2,66.5-344.6,66.5-652.8,0V391.6c308.2,72.5,362.6,72.5,658.8,0Z" transform="translate(-913.2 -145.8)"/></svg>